<?xml version="1.0" encoding="UTF-8"?>
<svg version="1.1" xmlns="http://www.w3.org/2000/svg" width="1234" height="1710">
<path d="M0 0 C199.65 0 399.3 0 605 0 C605 42.24 605 84.48 605 128 C607.475 128.99 607.475 128.99 610 130 C611.35339971 130.74011248 612.68883227 131.51406336 614.00390625 132.3203125 C614.73810791 132.76882568 615.47230957 133.21733887 616.22875977 133.67944336 C616.99889404 134.15647705 617.76902832 134.63351074 618.5625 135.125 C619.36679443 135.6207251 620.17108887 136.1164502 620.99975586 136.62719727 C650.33300406 154.79119062 678.19865361 175.73061218 703.7265625 198.9453125 C705.85545309 200.86936138 708.01419142 202.75145812 710.1875 204.625 C713.34552708 207.37166083 716.29109125 210.26916093 719.22265625 213.25390625 C721.06593574 215.06477643 722.97822799 216.75321354 724.9375 218.4375 C731.17028373 223.82801566 736.84507724 229.65432993 742.1640625 235.9453125 C742.76992187 236.62335938 743.37578125 237.30140625 744 238 C744.82069977 239.01643585 745.64139954 240.0328717 746.48696899 241.08010864 C749.85850534 244.41045272 752.59042047 244.72096632 757.21957397 244.8099823 C758.15177765 244.79776138 759.08398132 244.78554047 760.04443359 244.77294922 C761.04017395 244.78357895 762.03591431 244.79420868 763.06182861 244.80516052 C766.34121423 244.8331842 769.61898719 244.81915872 772.8984375 244.8046875 C775.17674158 244.81593871 777.45503407 244.82981981 779.73330688 244.84622192 C785.72078438 244.8822719 791.70775137 244.88263176 797.6953125 244.87554932 C803.80868676 244.87463669 809.92186941 244.90749101 816.03515625 244.9375 C828.02349096 244.99137372 840.01155761 245.0075426 852 245 C851.99224863 245.74209591 851.98449726 246.48419182 851.976511 247.24877548 C851.79140206 265.44282925 851.68608253 283.63581914 851.66578102 301.83082199 C851.65410776 310.63059232 851.61702908 319.42878507 851.51660156 328.22802734 C851.42896822 335.91226053 851.39260407 343.59488231 851.41372812 351.27961183 C851.42319597 355.33622289 851.40977935 359.38936772 851.33458328 363.44536591 C850.95194722 385.24136147 854.04671053 400.30742975 865.35352325 419.15748596 C867.70487083 423.21690467 869.60637576 427.42796887 871.4453125 431.73828125 C871.9381391 432.87445121 871.9381391 432.87445121 872.44092178 434.0335741 C873.34507102 436.12261891 874.23569864 438.21709556 875.125 440.3125 C875.78905829 441.86181821 876.45312089 443.41113457 877.1171875 444.96044922 C881.58927322 455.44476257 885.8683274 466.00216818 890 476.625 C890.25992737 477.29060944 890.51985474 477.95621887 890.78765869 478.64199829 C895 489.47066311 895 489.47066311 895 493 C893.35 493 891.7 493 890 493 C890.3609375 493.90363281 890.721875 494.80726563 891.09375 495.73828125 C891.78984375 497.50751953 891.78984375 497.50751953 892.5 499.3125 C893.19609375 501.07013672 893.19609375 501.07013672 893.90625 502.86328125 C895 506 895 506 895 509 C880.39781072 507.17472634 866.25217416 502.66484478 852 499 C852 631.66 852 764.32 852 901 C846.72 901 841.44 901 836 901 C836 906.28 836 911.56 836 917 C759.77 917 683.54 917 605 917 C605.33 946.04 605.66 975.08 606 1005 C636.66290407 998.23313843 636.66290407 998.23313843 667.125 990.6875 C667.96990997 990.46488495 668.81481995 990.2422699 669.68533325 990.01290894 C687.90155681 985.19812846 705.86399546 979.66297662 723.74914551 973.74420166 C725.96153247 973.01271855 728.17542811 972.28597053 730.38964844 971.56005859 C762.85652088 960.88782004 794.88614434 948.72922579 825.92871094 934.41357422 C829.0210352 932.99031846 832.12261355 931.58910505 835.2265625 930.19140625 C859.72678957 919.09957488 883.9344109 907.26274729 907.1875 893.734375 C912.01929752 890.93764491 916.9793647 888.43821278 922 886 C920.1303795 890.13123172 917.37835477 892.52617117 913.9375 895.375 C913.32189209 895.89247803 912.70628418 896.40995605 912.07202148 896.94311523 C910.74450699 898.05609198 909.41407576 899.16559713 908.08105469 900.27197266 C905.98730515 902.01054131 903.90351293 903.76053142 901.8203125 905.51171875 C892.80483642 913.05087952 883.56743847 920.17606281 874 927 C889.91622529 919.14067772 905.78935018 911.1688947 921 902 C921 902.99 921 903.98 921 905 C918.90580703 907.06370981 916.81662752 908.93680877 914.5625 910.8125 C913.89017334 911.38218506 913.21784668 911.95187012 912.52514648 912.53881836 C910.35801035 914.36886107 908.1796608 916.18490194 906 918 C904.59372165 919.18225795 903.18747134 920.36454924 901.78125 921.546875 C893.06080783 928.83752084 884.1294262 935.78082693 874.98388672 942.52783203 C872.98034181 944.0145876 870.99042938 945.51793528 869.00390625 947.02734375 C859.85497885 953.97160279 850.52399631 960.58113341 841 967 C840.38833984 967.41459473 839.77667969 967.82918945 839.14648438 968.25634766 C816.66302569 983.48883054 793.44242036 997.60542982 769.58886719 1010.58789062 C767.73796624 1011.59747296 765.88997716 1012.61240111 764.04394531 1013.63085938 C727.69893965 1033.66564071 689.85439839 1050.33461944 651 1064.875 C650.01472824 1065.24605362 650.01472824 1065.24605362 649.009552 1065.62460327 C634.83078154 1070.94222917 620.43751164 1075.35937126 606 1080 C605.67 1100.79 605.34 1121.58 605 1143 C599.72 1143 594.44 1143 589 1143 C589 1148.28 589 1153.56 589 1159 C389.35 1159 189.7 1159 -16 1159 C-16.495 1085.245 -16.495 1085.245 -17 1010 C-22.61 1006.04 -28.22 1002.08 -34 998 C-37.60579716 995.33452865 -41.19263408 992.66457742 -44.75 989.9375 C-45.63413574 989.26195068 -46.51827148 988.58640137 -47.42919922 987.89038086 C-53.48909864 983.23168785 -59.3937197 978.43201077 -65.171875 973.4296875 C-67.8611935 971.11925089 -70.60432497 968.89917919 -73.375 966.6875 C-79.89507825 961.37694351 -85.9560384 955.59784005 -92.06054688 949.82177734 C-93.94813441 948.04871866 -95.85280468 946.29655391 -97.765625 944.55078125 C-98.34629258 944.01741905 -98.92696016 943.48405685 -99.52522373 942.93453217 C-100.77288712 941.79126998 -102.02598725 940.65388777 -103.28653622 939.52484894 C-106.58395066 936.50529003 -109.45226072 933.52644791 -112.03163147 929.86682129 C-116.93355614 923.18635056 -121.54934318 918.00586855 -130.0085144 916.55883789 C-137.31567379 915.85400661 -144.60476819 916.04082573 -151.93359375 916.21875 C-154.62506621 916.23508372 -157.31632888 916.22728194 -160.00782776 916.22009277 C-166.33068162 916.21683924 -172.64975208 916.29438295 -178.97157961 916.40231276 C-186.17845503 916.52131824 -193.38480244 916.54820924 -200.59252632 916.56806469 C-215.39643979 916.61087325 -230.19782476 916.76708412 -245 917 C-244.99317042 916.07936705 -244.98634085 915.15873409 -244.97930431 914.21020317 C-244.81663303 891.66759838 -244.72759574 869.12571034 -244.71759319 846.58250237 C-244.71103362 835.68001696 -244.68078453 824.77861679 -244.59204102 813.87646484 C-244.51463145 804.35893858 -244.48444399 794.84254909 -244.50781661 785.32471859 C-244.51859399 780.29819963 -244.50787171 775.27407852 -244.44031334 770.24795151 C-244.13363538 746.11800373 -245.91050985 727.48069821 -257.4547348 705.98455429 C-259.75525569 701.54128495 -261.56067402 696.93951915 -263.33203125 692.265625 C-263.92738949 690.73163694 -264.52303932 689.19776197 -265.11914062 687.6640625 C-265.39733643 686.93864258 -265.67553223 686.21322266 -265.9621582 685.46582031 C-266.8533596 683.14352807 -267.75533614 680.82559186 -268.65820312 678.5078125 C-269.23757309 677.01064637 -269.81637586 675.51326058 -270.39453125 674.015625 C-270.65998245 673.33260315 -270.92543365 672.6495813 -271.19892883 671.94586182 C-273 667.23204863 -273 667.23204863 -273 665 C-271.02 665.33 -269.04 665.66 -267 666 C-267.433125 664.94039062 -267.86625 663.88078125 -268.3125 662.7890625 C-268.87518135 661.40111517 -269.43767145 660.0130903 -270 658.625 C-270.28617187 657.92632813 -270.57234375 657.22765625 -270.8671875 656.5078125 C-273 651.2265625 -273 651.2265625 -273 649 C-270.20721729 649.59932265 -267.41586227 650.20434855 -264.625 650.8125 C-263.85027344 650.97814453 -263.07554687 651.14378906 -262.27734375 651.31445312 C-256.3801109 652.60599586 -250.8228384 654.25314848 -245 656 C-245 525.65 -245 395.3 -245 261 C-239.72 261 -234.44 261 -229 261 C-229 255.72 -229 250.44 -229 245 C-158.71 245 -88.42 245 -16 245 C-16.33 217.28 -16.66 189.56 -17 161 C-46.66840689 168.45282629 -46.66840689 168.45282629 -76.0625 176.8125 C-77.26457596 177.17726944 -77.26457596 177.17726944 -78.49093628 177.54940796 C-120.93114814 190.44338488 -162.5357153 205.82720596 -203 224 C-204.03108887 224.45842285 -205.06217773 224.9168457 -206.12451172 225.38916016 C-252.89523108 246.19110322 -252.89523108 246.19110322 -297 272 C-297.99 271.67 -298.98 271.34 -300 271 C-293.70609304 265.22489665 -287.27739276 259.679841 -280.62792969 254.31884766 C-278.789131 252.82916702 -276.96073329 251.32722551 -275.1328125 249.82421875 C-267.58531793 243.63160989 -259.99720169 237.60820712 -252 232 C-266.6620314 238.51427167 -281.24015874 245.85050056 -294.62011719 254.7409668 C-295.40547852 255.15644775 -296.19083984 255.57192871 -297 256 C-297.99 255.67 -298.98 255.34 -300 255 C-294.16771165 249.64846427 -288.23782221 244.46847725 -282.08203125 239.4921875 C-279.86080631 237.69606391 -277.65099623 235.88991464 -275.44921875 234.0703125 C-264.88619542 225.36785242 -254.01421123 217.12139072 -243 209 C-242.25524414 208.44844238 -241.51048828 207.89688477 -240.74316406 207.32861328 C-206.97228513 182.36851872 -171.06077152 160.67942133 -134 141 C-132.96069336 140.44344727 -131.92138672 139.88689453 -130.85058594 139.31347656 C-38.60934826 90 -38.60934826 90 -16 90 C-16 65.25 -16 40.5 -16 15 C-10.72 15 -5.44 15 0 15 C0 10.05 0 5.1 0 0 Z " fill="#3F944C" transform="translate(311,330)"/>
<path d="M0 0 C52.47 0 104.94 0 159 0 C160.14867502 14.93277531 160.14867502 14.93277531 160.12025452 21.77644348 C160.12153615 22.95691719 160.12153615 22.95691719 160.12284368 24.16123885 C160.124465 26.746596 160.11903316 29.33188536 160.11352539 31.91723633 C160.11324277 33.79105121 160.11340272 35.66486621 160.1139679 37.53868103 C160.11425293 42.58734683 160.10840388 47.63598852 160.10139394 52.68464875 C160.09511131 57.97504187 160.09455273 63.26543564 160.09336853 68.55583191 C160.09026963 78.55687343 160.08207577 88.55790391 160.07201904 98.55894059 C160.05871464 112.08541363 160.05334635 125.61188971 160.04751682 139.13836765 C160.03813482 160.42558668 160.01820631 181.71278245 160 203 C211.15 203 262.3 203 315 203 C314.98839844 189.72394531 314.97679687 176.44789063 314.96484375 162.76953125 C314.95973342 154.35221335 314.95487796 145.93489657 314.95117188 137.51757812 C314.94524385 124.16121028 314.93828398 110.80484875 314.92456055 97.44848633 C314.91456957 87.7200842 314.90813608 77.99168721 314.90591151 68.26328009 C314.90461188 63.11582438 314.90157359 57.96838337 314.89426994 52.82093239 C314.88744001 47.96763894 314.88539713 43.11436614 314.88689232 38.26106834 C314.88661911 36.48787702 314.88465562 34.71468494 314.88079453 32.9414978 C314.87574793 30.5025033 314.87704135 28.06358463 314.87974548 25.62458801 C314.87537622 24.59581385 314.87537622 24.59581385 314.87091869 23.54625636 C314.89038623 16.95820239 315.48959985 10.63520191 316 4 C368.47 4 420.94 4 475 4 C475 183.52 475 363.04 475 548 C422.53 548 370.06 548 316 548 C316 489.26 316 430.52 316 370 C264.19 370 212.38 370 159 370 C159 427.75 159 485.5 159 545 C106.53 545 54.06 545 0 545 C0 365.15 0 185.3 0 0 Z " fill="#EBEA5B" transform="translate(385,627)"/>
<path d="M0 0 C10.25676379 2.11250419 20.39031548 4.58277805 30.5 7.3125 C45.45428401 11.34677025 60.44136152 15.24933304 75.4375 19.125 C76.67827301 19.44573486 77.91904602 19.76646973 79.19741821 20.09692383 C95.36202814 24.27333998 111.53281351 28.42505444 127.71435547 32.53540039 C132.32866164 33.70833892 136.9392652 34.89446593 141.54736328 36.09155273 C151.91366593 38.77349318 162.25900096 41.31920716 172.7578125 43.4296875 C198.9248782 48.81404719 198.9248782 48.81404719 204.109375 54.890625 C206.50957953 58.73520793 207.79625356 62.77953853 209.04101562 67.11425781 C210.93808531 72.82285344 213.98458396 78.02131927 216.8125 83.3125 C217.70884155 85.04137451 217.70884155 85.04137451 218.62329102 86.80517578 C224.32429369 97.79947025 230.50301079 108.45963101 237 119 C237.5671875 119.92151855 238.134375 120.84303711 238.71875 121.79248047 C246.63428339 134.5867564 255.0181733 146.93295234 264 159 C264.84393574 160.14309206 265.68769873 161.28631169 266.53125 162.4296875 C271.2157142 168.73446294 276.04946839 174.90262709 281 181 C281.70898438 181.88429688 282.41796875 182.76859375 283.1484375 183.6796875 C287.73562542 189.36136237 292.49018994 194.83534029 297.4453125 200.19921875 C298.77488579 201.65687021 300.10094092 203.11872354 301.37890625 204.62182617 C306.88840922 211.09051163 312.88196096 217.06805379 318.88671875 223.07202148 C320.73728967 224.92477468 322.57970076 226.78538706 324.421875 228.64648438 C330.57709663 234.83019165 336.76924729 240.70857142 343.63696289 246.10449219 C346.09298388 248.07458692 348.3903332 250.16037703 350.6875 252.3125 C356.72952632 257.8026562 363.2536102 262.59709978 369.83496094 267.41308594 C371.98292231 268.98748252 374.12060626 270.57510889 376.2578125 272.1640625 C434.88720007 315.46001714 503.00943712 343.70500353 574 359 C575.16192871 359.25281738 576.32385742 359.50563477 577.52099609 359.76611328 C618.10198183 368.47269992 659.55656913 372.04920604 701 373 C701.94182129 373.02336426 702.88364258 373.04672852 703.85400391 373.07080078 C734.13502706 373.72324361 764.85830852 371.86501134 795 369 C796.58627197 368.85159668 796.58627197 368.85159668 798.20458984 368.70019531 C865.33110297 362.25811152 932.80307917 345.90602445 996.74914551 324.74420166 C998.96153247 324.01271855 1001.17542811 323.28597053 1003.38964844 322.56005859 C1035.85652088 311.88782004 1067.88614434 299.72922579 1098.92871094 285.41357422 C1102.0210352 283.99031846 1105.12261355 282.58910505 1108.2265625 281.19140625 C1132.72678957 270.09957488 1156.9344109 258.26274729 1180.1875 244.734375 C1185.01929752 241.93764491 1189.9793647 239.43821278 1195 237 C1193.1303795 241.13123172 1190.37835477 243.52617117 1186.9375 246.375 C1186.32189209 246.89247803 1185.70628418 247.40995605 1185.07202148 247.94311523 C1183.74450699 249.05609198 1182.41407576 250.16559713 1181.08105469 251.27197266 C1178.98730515 253.01054131 1176.90351293 254.76053142 1174.8203125 256.51171875 C1165.80483642 264.05087952 1156.56743847 271.17606281 1147 278 C1162.91622529 270.14067772 1178.78935018 262.1688947 1194 253 C1194 253.99 1194 254.98 1194 256 C1191.90580703 258.06370981 1189.81662752 259.93680877 1187.5625 261.8125 C1186.89017334 262.38218506 1186.21784668 262.95187012 1185.52514648 263.53881836 C1183.35801035 265.36886107 1181.1796608 267.18490194 1179 269 C1177.59372165 270.18225795 1176.18747134 271.36454924 1174.78125 272.546875 C1166.06080783 279.83752084 1157.1294262 286.78082693 1147.98388672 293.52783203 C1145.98034181 295.0145876 1143.99042938 296.51793528 1142.00390625 298.02734375 C1132.85497885 304.97160279 1123.52399631 311.58113341 1114 318 C1113.38833984 318.41459473 1112.77667969 318.82918945 1112.14648438 319.25634766 C1089.66302569 334.48883054 1066.44242036 348.60542982 1042.58886719 361.58789062 C1040.73796624 362.59747296 1038.88997716 363.61240111 1037.04394531 364.63085938 C1000.69893965 384.66564071 962.85439839 401.33461944 924 415.875 C923.34315216 416.12236908 922.68630432 416.36973816 922.009552 416.62460327 C907.83078154 421.94222917 893.43751164 426.35937126 879 431 C878.67 451.79 878.34 472.58 878 494 C872.72 494 867.44 494 862 494 C862 499.28 862 504.56 862 510 C662.35 510 462.7 510 257 510 C256.505 436.245 256.505 436.245 256 361 C250.39 357.04 244.78 353.08 239 349 C235.39420284 346.33452865 231.80736592 343.66457742 228.25 340.9375 C226.92379639 339.92417603 226.92379639 339.92417603 225.57080078 338.89038086 C219.51090136 334.23168785 213.6062803 329.43201077 207.828125 324.4296875 C205.1388065 322.11925089 202.39567503 319.89917919 199.625 317.6875 C193.10492175 312.37694351 187.0439616 306.59784005 180.93945312 300.82177734 C179.05186559 299.04871866 177.14719532 297.29655391 175.234375 295.55078125 C174.36337363 294.75073795 174.36337363 294.75073795 173.47477627 293.93453217 C172.22711288 292.79126998 170.97401275 291.65388777 169.71346378 290.52484894 C166.41604934 287.50529003 163.54773928 284.52644791 160.96836853 280.86682129 C156.06644386 274.18635056 151.45065682 269.00586855 142.9914856 267.55883789 C135.68432621 266.85400661 128.39523181 267.04082573 121.06640625 267.21875 C118.37493379 267.23508372 115.68367112 267.22728194 112.99217224 267.22009277 C106.66931838 267.21683924 100.35024792 267.29438295 94.02842039 267.40231276 C86.82154497 267.52131824 79.61519756 267.54820924 72.40747368 267.56806469 C57.60356021 267.61087325 42.80217524 267.76708412 28 268 C28.00682958 267.07936705 28.01365915 266.15873409 28.02069569 265.21020317 C28.18336697 242.66759838 28.27240426 220.12571034 28.28240681 197.58250237 C28.28896638 186.68001696 28.31921547 175.77861679 28.40795898 164.87646484 C28.48536855 155.35893858 28.51555601 145.84254909 28.49218339 136.32471859 C28.48140601 131.29819963 28.49212829 126.27407852 28.55968666 121.24795151 C28.86636462 97.11800373 27.08949015 78.48069821 15.5452652 56.98455429 C13.24474431 52.54128495 11.43932598 47.93951915 9.66796875 43.265625 C9.07261051 41.73163694 8.47696068 40.19776197 7.88085938 38.6640625 C7.60266357 37.93864258 7.32446777 37.21322266 7.0378418 36.46582031 C6.1466404 34.14352807 5.24466386 31.82559186 4.34179688 29.5078125 C3.76242691 28.01064637 3.18362414 26.51326058 2.60546875 25.015625 C2.34001755 24.33260315 2.07456635 23.6495813 1.80107117 22.94586182 C0 18.23204863 0 18.23204863 0 16 C1.98 16.33 3.96 16.66 6 17 C5.566875 15.94039062 5.13375 14.88078125 4.6875 13.7890625 C4.12481865 12.40111517 3.56232855 11.0130903 3 9.625 C2.71382812 8.92632813 2.42765625 8.22765625 2.1328125 7.5078125 C0 2.2265625 0 2.2265625 0 0 Z " fill="#F1BD1F" transform="translate(38,979)"/>
<path d="M0 0 C199.65 0 399.3 0 605 0 C605 42.24 605 84.48 605 128 C607.475 128.99 607.475 128.99 610 130 C611.35339971 130.74011248 612.68883227 131.51406336 614.00390625 132.3203125 C614.73810791 132.76882568 615.47230957 133.21733887 616.22875977 133.67944336 C616.99889404 134.15647705 617.76902832 134.63351074 618.5625 135.125 C619.36679443 135.6207251 620.17108887 136.1164502 620.99975586 136.62719727 C650.33300406 154.79119062 678.19865361 175.73061218 703.7265625 198.9453125 C705.85545309 200.86936138 708.01419142 202.75145812 710.1875 204.625 C713.34552708 207.37166083 716.29109125 210.26916093 719.22265625 213.25390625 C721.06593574 215.06477643 722.97822799 216.75321354 724.9375 218.4375 C731.17028373 223.82801566 736.84507724 229.65432993 742.1640625 235.9453125 C742.76992187 236.62335938 743.37578125 237.30140625 744 238 C744.82069977 239.01643585 745.64139954 240.0328717 746.48696899 241.08010864 C749.85850534 244.41045272 752.59042047 244.72096632 757.21957397 244.8099823 C758.15177765 244.79776138 759.08398132 244.78554047 760.04443359 244.77294922 C761.04017395 244.78357895 762.03591431 244.79420868 763.06182861 244.80516052 C766.34121423 244.8331842 769.61898719 244.81915872 772.8984375 244.8046875 C775.17674158 244.81593871 777.45503407 244.82981981 779.73330688 244.84622192 C785.72078438 244.8822719 791.70775137 244.88263176 797.6953125 244.87554932 C803.80868676 244.87463669 809.92186941 244.90749101 816.03515625 244.9375 C828.02349096 244.99137372 840.01155761 245.0075426 852 245 C851.99224863 245.74209591 851.98449726 246.48419182 851.976511 247.24877548 C851.79140206 265.44282925 851.68608253 283.63581914 851.66578102 301.83082199 C851.65410776 310.63059232 851.61702908 319.42878507 851.51660156 328.22802734 C851.42896822 335.91226053 851.39260407 343.59488231 851.41372812 351.27961183 C851.42319597 355.33622289 851.40977935 359.38936772 851.33458328 363.44536591 C850.95194722 385.24136147 854.04671053 400.30742975 865.35352325 419.15748596 C867.70487083 423.21690467 869.60637576 427.42796887 871.4453125 431.73828125 C871.9381391 432.87445121 871.9381391 432.87445121 872.44092178 434.0335741 C873.34507102 436.12261891 874.23569864 438.21709556 875.125 440.3125 C875.78905829 441.86181821 876.45312089 443.41113457 877.1171875 444.96044922 C881.58927322 455.44476257 885.8683274 466.00216818 890 476.625 C890.25992737 477.29060944 890.51985474 477.95621887 890.78765869 478.64199829 C895 489.47066311 895 489.47066311 895 493 C889.09795428 492.32456153 883.58198004 490.87196783 877.875 489.25 C870.36535886 487.15468165 862.8446255 485.20000761 855.25 483.4375 C848.04703858 481.76264118 840.92708495 479.90584982 833.81640625 477.87695312 C827.10227766 475.98154868 820.32849585 474.38817098 813.53515625 472.8046875 C807.53002477 471.39432427 801.62012375 469.77299859 795.703125 468.02734375 C791.07970319 466.74468559 786.42219657 465.65153035 781.75 464.5625 C774.28476148 462.82208424 766.90009252 460.90386151 759.52832031 458.80493164 C754.54633887 457.39801389 749.5466341 456.15215169 744.5 455 C737.95295303 453.50530253 731.49955431 451.78095961 725.04467773 449.93017578 C720.81791013 448.7340505 716.58422697 447.65154688 712.30078125 446.67578125 C711.3459082 446.45784912 710.39103516 446.23991699 709.40722656 446.01538086 C707.54546487 445.59627676 705.68156089 445.18655168 703.81542969 444.78735352 C702.97012695 444.59713623 702.12482422 444.40691895 701.25390625 444.2109375 C700.50439697 444.04899902 699.7548877 443.88706055 698.98266602 443.72021484 C694.10829802 441.94957261 692.56487036 437.48569025 690.4453125 433.078125 C689.7478723 431.65707109 689.05027472 430.23609441 688.35253906 428.81518555 C687.98938599 428.0702182 687.62623291 427.32525085 687.2520752 426.55770874 C666.84119934 384.76603698 642.10620005 345.55895175 612.41503906 309.71923828 C611.15497335 308.18828888 609.91580531 306.64019353 608.6796875 305.08984375 C602.77598629 297.69387858 596.3554527 290.84343901 589.85693359 283.97460938 C587.98085027 281.97963673 586.12283882 279.96925922 584.26953125 277.953125 C576.35518613 269.33392508 576.35518613 269.33392508 567.7109375 261.4609375 C565.92541819 259.93631599 564.3164164 258.31509636 562.6875 256.625 C558.96400018 252.83364597 554.87181535 249.56500693 550.734375 246.23828125 C548.37330922 244.30558026 546.11882708 242.3155385 543.875 240.25 C508.18019304 208.23899874 463.97312432 183.59708696 420 165.125 C419.35504578 164.85364227 418.71009155 164.58228455 418.04559326 164.30270386 C409.13273936 160.56750225 400.12416077 157.18805857 391 154 C389.15957571 153.33754815 387.31969152 152.67359297 385.48046875 152.0078125 C363.64327172 144.19483999 341.50045376 138.42688221 318.82666016 133.60498047 C316.49915695 133.10683287 314.17630472 132.59448999 311.85546875 132.06640625 C297.86344114 128.92267944 283.67117726 127.02462164 269.45794678 125.19772339 C267.53808554 124.95045491 265.61887562 124.6981448 263.69970703 124.44555664 C259.47055793 123.91455329 255.23938437 123.44062089 251 123 C249.72284622 122.86439163 249.72284622 122.86439163 248.41989136 122.7260437 C228.41224137 120.68341445 208.41719511 120.65754153 188.32788086 120.68432617 C184.58719794 120.68893641 180.84684185 120.68209818 177.10620117 120.66381836 C151.91321914 120.54199404 127.0675158 121.45009113 102 124 C100.42960464 124.15702896 100.42960464 124.15702896 98.82748413 124.31723022 C93.29034329 124.88107922 87.76888357 125.5302317 82.25 126.25 C81.44745789 126.35260132 80.64491577 126.45520264 79.8180542 126.56091309 C18.21349529 134.47812017 -43.13579538 148.08796623 -102 168 C-103.06347656 168.350625 -104.12695312 168.70125 -105.22265625 169.0625 C-106.15980469 169.371875 -107.09695312 169.68125 -108.0625 170 C-109.00222656 170.309375 -109.94195312 170.61875 -110.91015625 170.9375 C-113.20966141 171.72822744 -115.48084078 172.54950032 -117.75390625 173.41015625 C-123.26223589 175.49269313 -128.83399925 177.39171535 -134.40234375 179.30664062 C-139.46467955 181.06320073 -144.45364146 182.94474901 -149.41943359 184.95776367 C-152.13375173 186.0540195 -154.85791806 187.12191487 -157.5859375 188.18359375 C-159.01292969 188.73950195 -159.01292969 188.73950195 -160.46875 189.30664062 C-162.39814488 190.05739307 -164.32783021 190.80739953 -166.2578125 191.55664062 C-182.40211669 197.85073759 -198.196814 204.9019229 -214 212 C-215.18819336 212.53173828 -216.37638672 213.06347656 -217.60058594 213.61132812 C-221.0715606 215.16863303 -224.5365479 216.73854618 -228 218.3125 C-229.04236816 218.77922119 -230.08473633 219.24594238 -231.15869141 219.72680664 C-237.14496019 222.46709524 -242.59144585 225.57819345 -248.09277344 229.18579102 C-252.97622295 232.23323083 -258.12034558 234.78033556 -263.25592041 237.36987305 C-273.10061546 242.33481673 -282.84519566 247.38062691 -292.16455078 253.29418945 C-293.73414246 254.26775208 -295.36277481 255.14505212 -297 256 C-297.99 255.67 -298.98 255.34 -300 255 C-294.16771165 249.64846427 -288.23782221 244.46847725 -282.08203125 239.4921875 C-279.86080631 237.69606391 -277.65099623 235.88991464 -275.44921875 234.0703125 C-264.88619542 225.36785242 -254.01421123 217.12139072 -243 209 C-242.25524414 208.44844238 -241.51048828 207.89688477 -240.74316406 207.32861328 C-206.97228513 182.36851872 -171.06077152 160.67942133 -134 141 C-132.96069336 140.44344727 -131.92138672 139.88689453 -130.85058594 139.31347656 C-38.60934826 90 -38.60934826 90 -16 90 C-16 65.25 -16 40.5 -16 15 C-10.72 15 -5.44 15 0 15 C0 10.05 0 5.1 0 0 Z " fill="#F2BD1F" transform="translate(311,330)"/>
<path d="M0 0 C27.06 0 54.12 0 82 0 C82 46.53 82 93.06 82 141 C145.69 141 209.38 141 275 141 C275 95.79 275 50.58 275 4 C301.73 4 328.46 4 356 4 C356 129.4 356 254.8 356 384 C329.27 384 302.54 384 275 384 C275 345.06 275 306.12 275 266 C211.31 266 147.62 266 82 266 C82 303.62 82 341.24 82 380 C55.27 380 28.54 380 1 380 C0.7375858 332.06254877 0.7375858 332.06254877 0.64428711 313.93310547 C0.63854734 312.81806444 0.63280758 311.70302341 0.62689388 310.55419326 C0.58419811 302.24446418 0.54198379 293.93473271 0.5 285.625 C0.49405146 284.44963841 0.48810292 283.27427683 0.48197412 282.06329823 C0.12795566 212.0003025 -0.09557327 141.93892591 -0.0625 71.875 C-0.06207577 70.94855714 -0.06165154 70.02211428 -0.06121445 69.06759739 C-0.0582228 62.64744092 -0.0547278 56.22728486 -0.05078125 49.80712891 C-0.0502903 49.00557145 -0.04979935 48.20401399 -0.04929352 47.37816691 C-0.03921106 31.58543537 -0.01862838 15.79272666 0 0 Z " fill="#3F944C" transform="translate(444,709)"/>
<path d="M0 0 C2.8125 0.1875 2.8125 0.1875 6 1 C8.6261643 4.66448396 10.19915229 8.70033402 11.86328125 12.87109375 C12.41847457 14.24918037 12.97407519 15.62710294 13.5300293 17.00488281 C13.82001801 17.72695923 14.11000671 18.44903564 14.40878296 19.19299316 C21.34651458 36.4238136 28.92115523 53.27713386 37 70 C37.4856543 71.00981934 37.97130859 72.01963867 38.47167969 73.06005859 C44.91471576 86.39926238 51.94353499 99.35477921 59.36474609 112.17382812 C60.43225635 114.01878166 61.49529233 115.86633339 62.55322266 117.71679688 C81.14077034 150.22571132 102.87522498 181.36012947 127 210 C127.86609613 211.04018918 128.73196873 212.08056449 129.59765625 213.12109375 C135.36687407 220.02634701 141.32514363 226.71595559 147.45043945 233.30688477 C148.61651359 234.58098656 149.76905036 235.86749822 150.91479492 237.15991211 C156.56999462 243.53116954 162.45978745 249.61468163 168.4934082 255.6237793 C170.06774155 257.1927236 171.63661589 258.76698558 173.20507812 260.34179688 C178.6318789 265.7721749 184.15514575 271.01774073 190 276 C191.60768373 277.45445517 193.21239715 278.91220895 194.8125 280.375 C200.06175883 285.10571502 205.49558996 289.57083694 211 294 C212.12135302 294.91374442 213.24243511 295.82782139 214.36328125 296.7421875 C283.18951077 352.64763011 364.57965296 392.33877253 505 426 C507.00157957 426.32900297 509.00315887 426.65800761 511.00473022 426.98706055 C514.52259671 427.56260312 518.04229742 428.12644503 521.5625 428.6875 C522.83448242 428.89036621 524.10646484 429.09323242 525.41699219 429.30224609 C535.25167594 430.82515896 545.10182921 431.98251433 555 433 C555.69606354 433.07322479 556.39212708 433.14644958 557.10928345 433.22189331 C606.47374501 438.37316433 657.64722882 438.10210954 707 433 C707.85219116 432.91278687 708.70438232 432.82557373 709.58239746 432.73571777 C733.91098138 430.22239234 757.99354254 426.66289694 782 422 C783.0477359 421.79793945 783.0477359 421.79793945 784.11663818 421.59179688 C812.65627627 416.08247257 840.84940334 409.51588363 868.58056641 400.75097656 C871.42598098 399.86777826 874.2870057 399.05283391 877.15454102 398.24511719 C889.49748214 394.75220707 901.56924901 390.4017679 913.67089844 386.16308594 C916.53003388 385.16419174 919.39244382 384.17613716 922.2578125 383.1953125 C929.17676359 380.81499068 935.92429582 378.27346186 942.546875 375.140625 C944.90118359 374.04594648 947.2696427 373.0697257 949.6875 372.125 C954.89727161 370.08276953 960.00655595 367.82865873 965.1159668 365.54931641 C968.39948436 364.09480632 971.68318573 362.72797466 975.05859375 361.5 C978.82828918 360.11070557 982.36244853 358.4012149 985.9375 356.5625 C989.67251692 354.64567731 993.39650274 352.80446518 997.2421875 351.12109375 C1002.64060132 348.74633956 1007.9140895 346.13886471 1013.1875 343.5 C1014.2305127 342.97809082 1015.27352539 342.45618164 1016.34814453 341.91845703 C1026.16979431 336.96981664 1035.82958123 331.74979469 1045.4453125 326.4140625 C1047.89572372 325.05771868 1050.35281342 323.71443329 1052.8125 322.375 C1062.10423922 317.29659069 1071.1387439 311.91436492 1080.06738281 306.22363281 C1081.93991201 305.03804459 1083.82256627 303.87109373 1085.7109375 302.7109375 C1100.05813231 293.88261165 1114.50228822 284.86822677 1127.84594727 274.57324219 C1135.86499768 268.39158194 1144.48563179 263.89875494 1153.50390625 259.3359375 C1161.60519012 255.2228032 1169.52837396 250.79349804 1177.46734619 246.37808228 C1178.69225962 245.69689866 1179.91737731 245.01608217 1181.14271545 244.33566284 C1182.76992435 243.43164042 1184.39587236 242.5253495 1186.02172852 241.61889648 C1188.98283724 240.00932915 1191.97681376 238.48917513 1195 237 C1193.42857587 241.21023068 1190.29766868 243.59289502 1186.9375 246.375 C1186.32116699 246.89320313 1185.70483398 247.41140625 1185.06982422 247.9453125 C1183.05223084 249.63713025 1181.02607454 251.31835337 1179 253 C1177.61826157 254.15858229 1176.23675278 255.3174385 1174.85546875 256.4765625 C1166.10464665 263.78516462 1157.15761681 270.76002967 1147.98388672 277.52783203 C1145.98034181 279.0145876 1143.99042938 280.51793528 1142.00390625 282.02734375 C1132.85497885 288.97160279 1123.52399631 295.58113341 1114 302 C1113.38833984 302.41459473 1112.77667969 302.82918945 1112.14648438 303.25634766 C1089.66302569 318.48883054 1066.44242036 332.60542982 1042.58886719 345.58789062 C1040.73796624 346.59747296 1038.88997716 347.61240111 1037.04394531 348.63085938 C1000.69893965 368.66564071 962.85439839 385.33461944 924 399.875 C923.34315216 400.12236908 922.68630432 400.36973816 922.009552 400.62460327 C907.83078154 405.94222917 893.43751164 410.35937126 879 415 C878.67 435.79 878.34 456.58 878 478 C872.72 478 867.44 478 862 478 C862 483.28 862 488.56 862 494 C662.35 494 462.7 494 257 494 C256.505 420.245 256.505 420.245 256 345 C250.39 341.04 244.78 337.08 239 333 C235.39420284 330.33452865 231.80736592 327.66457742 228.25 324.9375 C226.92379639 323.92417603 226.92379639 323.92417603 225.57080078 322.89038086 C219.51090136 318.23168785 213.6062803 313.43201077 207.828125 308.4296875 C205.1388065 306.11925089 202.39567503 303.89917919 199.625 301.6875 C193.10492175 296.37694351 187.0439616 290.59784005 180.93945312 284.82177734 C179.05186559 283.04871866 177.14719532 281.29655391 175.234375 279.55078125 C174.36337363 278.75073795 174.36337363 278.75073795 173.47477627 277.93453217 C172.22711288 276.79126998 170.97401275 275.65388777 169.71346378 274.52484894 C166.41604934 271.50529003 163.54773928 268.52644791 160.96836853 264.86682129 C156.06644386 258.18635056 151.45065682 253.00586855 142.9914856 251.55883789 C135.68432621 250.85400661 128.39523181 251.04082573 121.06640625 251.21875 C118.37493379 251.23508372 115.68367112 251.22728194 112.99217224 251.22009277 C106.66931838 251.21683924 100.35024792 251.29438295 94.02842039 251.40231276 C86.82154497 251.52131824 79.61519756 251.54820924 72.40747368 251.56806469 C57.60356021 251.61087325 42.80217524 251.76708412 28 252 C28.00682958 251.07936705 28.01365915 250.15873409 28.02069569 249.21020317 C28.18336697 226.66759838 28.27240426 204.12571034 28.28240681 181.58250237 C28.28896638 170.68001696 28.31921547 159.77861679 28.40795898 148.87646484 C28.48536855 139.35893858 28.51555601 129.84254909 28.49218339 120.32471859 C28.48140601 115.29819963 28.49212829 110.27407852 28.55968666 105.24795151 C28.86636462 81.11800373 27.08949015 62.48069821 15.5452652 40.98455429 C13.24474431 36.54128495 11.43932598 31.93951915 9.66796875 27.265625 C9.07261051 25.73163694 8.47696068 24.19776197 7.88085938 22.6640625 C7.60266357 21.93864258 7.32446777 21.21322266 7.0378418 20.46582031 C6.1466404 18.14352807 5.24466386 15.82559186 4.34179688 13.5078125 C3.76242691 12.01064637 3.18362414 10.51326058 2.60546875 9.015625 C2.34001755 8.33260315 2.07456635 7.6495813 1.80107117 6.94586182 C0 2.23204863 0 2.23204863 0 0 Z " fill="#1B3F29" transform="translate(38,995)"/>
<path d="M0 0 C199.65 0 399.3 0 605 0 C605 42.24 605 84.48 605 128 C592.02759756 121.51379878 592.02759756 121.51379878 586.66723633 118.62963867 C567.58947681 108.39036326 548.13097512 99.0579645 528.0625 90.9375 C527.40657867 90.6718222 526.75065735 90.40614441 526.07485962 90.13241577 C517.12980996 86.5242942 508.09896773 83.19868542 499 80 C496.91774706 79.25191885 494.83570988 78.50323685 492.75390625 77.75390625 C479.47763001 73.0305342 466.20865286 69.0291241 452.53271484 65.64990234 C450.2802649 65.07191683 448.05719958 64.44374263 445.83203125 63.76953125 C430.87969821 59.25062826 415.48012961 56.64170551 400.14453125 53.77832031 C396.72790151 53.13949343 393.31627985 52.47796794 389.90625 51.8046875 C321.68627711 38.50087594 245.67496189 36.46130312 176.85498047 46.60888672 C171.25285789 47.37634015 165.62318997 47.91159384 160 48.5 C151.49456431 49.41523616 143.16222059 50.55092257 134.77734375 52.2578125 C130.55298524 53.08783124 126.31896492 53.73641947 122.0625 54.375 C105.58720674 56.90060908 89.26082728 60.26654243 73.13134766 64.45996094 C67.86101428 65.79535354 62.56032632 67.01124905 57.26660156 68.25 C49.32511387 70.1221609 41.57566134 72.43862497 33.8125 74.9375 C27.46920081 76.96767401 21.15091351 78.82906544 14.640625 80.26171875 C11.96587487 81.0095409 9.52554366 82.05510499 6.98974609 83.17749023 C3.14336481 84.76748515 -0.8414076 85.9513029 -4.8125 87.1875 C-5.67037109 87.46013672 -6.52824219 87.73277344 -7.41210938 88.01367188 C-13.73948543 90 -13.73948543 90 -16 90 C-16 65.25 -16 40.5 -16 15 C-10.72 15 -5.44 15 0 15 C0 10.05 0 5.1 0 0 Z " fill="#3F934C" transform="translate(311,330)"/>
<path d="M0 0 C40.92 0 81.84 0 124 0 C124 168.3 124 336.6 124 510 C82.75 510 41.5 510 -1 510 C-1 449.61 -1 389.22 -1 327 C-0.67 327 -0.34 327 0 327 C0 365.94 0 404.88 0 445 C26.73 445 53.46 445 81 445 C81 319.6 81 194.2 81 65 C54.27 65 27.54 65 0 65 C0 43.55 0 22.1 0 0 Z " fill="#CDCC3D" transform="translate(719,648)"/>
<path d="M0 0 C40.92 0 81.84 0 124 0 C124 21.12 124 42.24 124 64 C96.94 64 69.88 64 42 64 C42.0721875 73.83554687 42.144375 83.67109375 42.21875 93.8046875 C42.26525825 100.47216346 42.31144764 107.13963817 42.35571289 113.80712891 C42.36145266 114.67132989 42.36719242 115.53553088 42.37310612 116.42591977 C42.41603741 122.90894245 42.45819734 129.39196996 42.5 135.875 C42.50594854 136.7950479 42.51189708 137.71509581 42.51802588 138.66302395 C42.97152577 208.98385305 43.08848448 279.30281585 43.0625 349.625 C43.06207577 350.80736079 43.06165154 351.98972158 43.06121445 353.20791149 C43.05820694 361.44964305 43.05470783 369.6913743 43.05078125 377.93310547 C43.0502903 378.96716152 43.04979935 380.00121758 43.04929352 381.06660867 C43.03893065 402.04441212 43.01845554 423.02220029 43 444 C69.73 444 96.46 444 124 444 C124 406.38 124 368.76 124 330 C124.33 330 124.66 330 125 330 C125 389.07 125 448.14 125 509 C83.75 509 42.5 509 0 509 C0 341.03 0 173.06 0 0 Z " fill="#CDCC3D" transform="translate(402,645)"/>
<path d="M0 0 C3.25347111 1.62673555 6.35752487 3.33720224 9.49609375 5.16796875 C51.71942617 29.65274243 95.95809957 51.42629959 142.88769531 65.37109375 C144.41662216 65.82630822 145.94448557 66.28509955 147.47167969 66.74609375 C174.02321914 74.75081318 200.74163643 81.00914549 228 86 C230.29366994 86.42825778 232.58725487 86.85695301 234.88061523 87.28686523 C295.3896621 98.08805591 357.79807757 100.12520622 419 95 C420.90894043 94.84724609 420.90894043 94.84724609 422.85644531 94.69140625 C480.52887901 89.97632462 538.51528677 79.64472007 593.71289062 62.13964844 C594.59654297 61.86411133 595.48019531 61.58857422 596.390625 61.3046875 C597.17985352 61.05444824 597.96908203 60.80420898 598.78222656 60.54638672 C601 60 601 60 605 60 C605 80.79 605 101.58 605 123 C405.35 123 205.7 123 0 123 C0 82.41 0 41.82 0 0 Z " fill="#3E934C" transform="translate(311,1350)"/>
<path d="M0 0 C3.74751835 0.00461876 7.49471113 -0.00226137 11.2421875 -0.02050781 C43.52114617 -0.17617516 75.17780476 1.61035881 107.14257812 6.31567383 C108.33729736 6.48534668 108.33729736 6.48534668 109.55615234 6.65844727 C123.20933683 8.60447026 136.6785168 11.34454165 150.14257812 14.31567383 C151.04266602 14.51418945 151.94275391 14.71270508 152.87011719 14.91723633 C227.7717516 31.64257338 300.42145161 64.86268439 360.14257812 113.31567383 C361.11582031 114.09555664 362.0890625 114.87543945 363.09179688 115.67895508 C368.47657718 120.02733416 373.68360885 124.52870183 378.79882812 129.19067383 C380.94950523 131.14062107 383.13082784 133.04593512 385.33007812 134.94067383 C388.49727061 137.69530617 391.45147197 140.60058567 394.38867188 143.59692383 C396.09585173 145.26988404 397.86850645 146.78714709 399.70507812 148.31567383 C405.754341 153.53257689 411.02543067 159.55709966 416.41601562 165.4362793 C417.99451248 167.15450169 419.58187172 168.86383689 421.17382812 170.56958008 C427.10489354 176.94347651 432.70332372 183.51885345 438.14257812 190.31567383 C439.06498188 191.44651339 439.98820008 192.57668897 440.91210938 193.70629883 C469.88980775 229.28931406 493.36884638 268.77642199 513.95507812 309.69067383 C514.477229 310.72562988 514.99937988 311.76058594 515.53735352 312.8269043 C516.01164795 313.77968262 516.48594238 314.73246094 516.97460938 315.71411133 C517.60459839 316.97747314 517.60459839 316.97747314 518.24731445 318.26635742 C519.14257812 320.31567383 519.14257812 320.31567383 519.14257812 322.31567383 C520.19832031 322.54641602 521.2540625 322.7771582 522.34179688 323.01489258 C537.79970047 326.41067918 553.25449851 329.80840863 568.43945312 334.28833008 C573.06287494 335.57098824 577.72038155 336.66414348 582.39257812 337.75317383 C589.85781665 339.49358959 597.2424856 341.41181232 604.61425781 343.51074219 C609.59623926 344.91765994 614.59594403 346.16352214 619.64257812 347.31567383 C625.44248367 348.63979815 631.17090849 350.12415717 636.89257812 351.75317383 C643.43973275 353.61562794 650.01313722 355.27211336 656.64257812 356.81567383 C664.01903917 358.53316613 671.31444654 360.43097379 678.59765625 362.5065918 C683.74980597 363.96268416 688.9248575 365.24227377 694.14257812 366.44067383 C696.80997929 367.06260043 699.47633007 367.68880442 702.14257812 368.31567383 C703.191875 368.55930664 704.24117187 368.80293945 705.32226562 369.05395508 C711.55680226 370.67132038 711.55680226 370.67132038 714.01757812 373.37817383 C714.38882812 374.34754883 714.76007813 375.31692383 715.14257812 376.31567383 C715.48933594 377.12133789 715.83609375 377.92700195 716.19335938 378.75708008 C719.14257812 385.71966867 719.14257812 385.71966867 719.14257812 389.31567383 C713.46029304 388.71391656 708.13122159 387.67458398 702.61914062 386.19067383 C701.78849594 385.97185547 700.95785126 385.75303711 700.10203552 385.52758789 C698.28335493 385.04801353 696.46527659 384.56615078 694.6477356 384.08227539 C689.57723313 382.73267727 684.50214635 381.40048196 679.42773438 380.06567383 C678.32112961 379.774104 677.21452484 379.48253418 676.0743866 379.18212891 C666.70762934 376.71755315 657.33115241 374.29180909 647.95117188 371.87817383 C647.21764496 371.68941681 646.48411804 371.50065979 645.72836304 371.30618286 C639.82712872 369.78794539 633.92543963 368.27147905 628.02368927 366.75524902 C623.81533885 365.67404529 619.60711492 364.59235203 615.39906502 363.50997925 C613.50938533 363.02416531 611.61949681 362.5391639 609.729599 362.05419922 C602.31707673 360.14806299 594.9177562 358.19791471 587.52586365 356.21362305 C582.41230799 354.85644723 577.27889937 353.58338545 572.14257812 352.31567383 C564.38764833 350.39021624 556.65622116 348.40720631 548.94335938 346.31958008 C543.31807133 344.83376402 537.6690391 343.44408612 532.01660156 342.06542969 C531.21125977 341.86699463 530.40591797 341.66855957 529.57617188 341.46411133 C528.86517334 341.29057129 528.1541748 341.11703125 527.42163086 340.93823242 C526.66954346 340.73278809 525.91745605 340.52734375 525.14257812 340.31567383 C524.14500488 340.11176025 523.14743164 339.90784668 522.11962891 339.69775391 C518.03287679 337.80050085 516.86529717 334.97267249 515.07617188 331.05395508 C514.72054169 330.32007065 514.3649115 329.58618622 513.99850464 328.83006287 C513.23756767 327.25568375 512.48544841 325.67701795 511.74136353 324.09460449 C509.78539099 319.94035383 507.75995571 315.82002937 505.74414062 311.69458008 C505.34691299 310.87718353 504.94968536 310.05978699 504.54042053 309.21762085 C492.6300568 284.78169917 477.9770265 261.39393917 462.14257812 239.31567383 C461.60810059 238.5701123 461.07362305 237.82455078 460.52294922 237.05639648 C452.87017233 226.43154028 444.91040644 216.11742703 436.55761719 206.03491211 C435.29755148 204.50396271 434.05838343 202.95586736 432.82226562 201.40551758 C427.43125029 194.65182862 421.62099352 188.36069519 415.68945312 182.08520508 C413.4442471 179.70953438 411.22349802 177.31627138 409.03320312 174.88989258 C402.60454319 167.77625476 395.87359381 161.175866 388.74511719 154.76538086 C387.16450885 153.33551305 385.60040461 151.88972208 384.04101562 150.43676758 C377.61774023 144.45946694 371.01038691 138.78018203 364.14257812 133.31567383 C363.63033691 132.90381836 363.1180957 132.49196289 362.59033203 132.06762695 C347.42623319 119.87768954 331.64701497 108.61881124 315.14257812 98.31567383 C314.53414062 97.93491699 313.92570313 97.55416016 313.29882812 97.16186523 C296.55853724 86.74966128 279.14818898 77.5072424 261.23583984 69.28881836 C259.36012758 68.41681123 257.50196598 67.50728282 255.64648438 66.59301758 C214.56980184 46.50580751 168.07434987 33.95688641 123.14257812 26.31567383 C122.15757324 26.14229492 121.17256836 25.96891602 120.15771484 25.7902832 C100.08244705 22.28637962 79.81101905 20.35104684 59.52426147 18.53207397 C57.84816387 18.37978347 56.17293415 18.21778391 54.4984436 18.04873657 C45.81904157 17.2268671 37.17181862 17.13401365 28.46289062 17.11254883 C27.67181789 17.10972145 26.88074516 17.10689407 26.06570053 17.10398102 C21.8527164 17.08905646 17.63976571 17.07979291 13.42675781 17.07543945 C10.03374098 17.07111744 6.64098747 17.05746503 3.24804688 17.03442383 C-54.46588103 16.65073043 -113.35379236 22.58228662 -169.58129883 35.86010742 C-171.85742188 36.31567383 -171.85742188 36.31567383 -174.85742188 36.31567383 C-174.85742188 65.68567383 -174.85742188 95.05567383 -174.85742188 125.31567383 C-180.46742188 125.31567383 -186.07742188 125.31567383 -191.85742188 125.31567383 C-192.18742187 97.59567383 -192.51742188 69.87567383 -192.85742188 41.31567383 C-222.52582876 48.76850012 -222.52582876 48.76850012 -251.91992188 57.12817383 C-252.72130585 57.37135345 -253.52268982 57.61453308 -254.34835815 57.86508179 C-296.78857001 70.75905871 -338.39313718 86.14287979 -378.85742188 104.31567383 C-379.88851074 104.77409668 -380.91959961 105.23251953 -381.98193359 105.70483398 C-428.75265295 126.50677705 -428.75265295 126.50677705 -472.85742188 152.31567383 C-473.84742188 151.98567383 -474.83742188 151.65567383 -475.85742188 151.31567383 C-470.02513352 145.9641381 -464.09524408 140.78415108 -457.93945312 135.80786133 C-455.71822819 134.01173774 -453.50841811 132.20558847 -451.30664062 130.38598633 C-421.06738684 105.4600798 -421.06738684 105.4600798 -405.34814453 98.43969727 C-402.31711921 97.07184385 -399.31292318 95.65113643 -396.30664062 94.22973633 C-372.21983229 82.87865154 -347.6704266 72.95187668 -322.85742188 63.31567383 C-322.07931152 63.01306641 -321.30120117 62.71045898 -320.49951172 62.39868164 C-312.56008713 59.32336018 -304.59363034 56.54322085 -296.44482422 54.07299805 C-291.91724433 52.68897748 -287.5836424 51.04385267 -283.22070312 49.21801758 C-279.78213916 47.90511134 -276.26295302 47.00842847 -272.69335938 46.12426758 C-269.7303361 45.32449292 -269.7303361 45.32449292 -266.44335938 44.00708008 C-208.11673858 21.76826685 -142.89548318 11.02669816 -81.10742188 4.06567383 C-80.42670624 3.98836029 -79.7459906 3.91104675 -79.04464722 3.83139038 C-74.81371513 3.35758538 -70.57991216 2.93333506 -66.34033203 2.54452515 C-64.61231575 2.38525285 -62.88480199 2.22047221 -61.15771484 2.05142212 C-40.77910335 0.09477072 -20.45314063 -0.0272936 0 0 Z " fill="#1D4029" transform="translate(486.857421875,449.684326171875)"/>
<path d="M0 0 C9.43143979 -0.18400316 18.78245334 0.39407547 28.1875 1 C29.72719395 1.09666676 31.26690742 1.19302313 32.80664062 1.2890625 C36.53799193 1.52246905 40.2690627 1.76005603 44 2 C47.58763389 18.36737797 50.98744873 34.75193593 54.08251953 51.21899414 C54.3195459 52.4693042 54.55657227 53.71961426 54.80078125 55.0078125 C55.00872314 56.11785645 55.21666504 57.22790039 55.4309082 58.37158203 C55.87841289 60.96333798 55.87841289 60.96333798 57 63 C59.22543798 56.205316 61.44894039 49.41000076 63.67114258 42.61425781 C64.42623806 40.30584614 65.18176514 37.9975756 65.93774414 35.68945312 C67.02866213 32.35844976 68.117991 29.02693018 69.20703125 25.6953125 C69.54152786 24.67511017 69.87602448 23.65490784 70.22065735 22.60379028 C72.23736978 16.42799509 74.1653718 10.23235016 76 4 C80.80159364 4.26368464 85.60301128 4.53032511 90.40429688 4.79956055 C92.03348482 4.89051817 93.66271601 4.98070503 95.29199219 5.07006836 C97.6505121 5.19956991 100.00885617 5.33195699 102.3671875 5.46484375 C103.08115692 5.50343002 103.79512634 5.5420163 104.5307312 5.58177185 C108.4557816 5.80587893 112.36026006 6.12030066 116.27175903 6.51856995 C117.16064882 6.60870141 118.04953861 6.69883287 118.96536446 6.79169559 C119.63679419 6.86043605 120.30822392 6.9291765 121 7 C120.23912904 20.34341927 119.4744519 33.68661444 118.7049036 47.02953625 C118.34769862 53.2250702 117.99180927 59.42067391 117.63891602 65.61645508 C117.29836042 71.59477329 116.95436278 77.57288438 116.60796928 83.55086708 C116.47636532 85.83256289 116.34600556 88.11433081 116.21690559 90.39616966 C116.03599098 93.59007744 115.85066999 96.7837011 115.66430664 99.97729492 C115.58554291 101.39501945 115.58554291 101.39501945 115.50518799 102.84138489 C115.4533284 103.71491608 115.40146881 104.58844727 115.34803772 105.4884491 C115.30471345 106.24339755 115.26138918 106.998346 115.21675205 107.77617168 C114.97987129 110.20651616 114.47888841 112.60555796 114 115 C100.14 114.01 100.14 114.01 86 113 C87.32 88.91 88.64 64.82 90 40 C86.57625 50.580625 83.1525 61.16125 79.625 72.0625 C78.54686035 75.392229 77.4687207 78.72195801 76.35791016 82.15258789 C75.38514142 85.16082988 75.38514142 85.16082988 74.41268921 88.16917419 C73.98238197 89.49984169 73.55160781 90.83035826 73.12045288 92.16075134 C72.46410958 94.18631544 71.80929117 96.21236699 71.15478516 98.23852539 C70.78616364 99.37769913 70.41754211 100.51687286 70.03775024 101.69056702 C68.9645672 105.11299683 67.97083383 108.5473684 67 112 C63.41637224 111.86089513 59.83318502 111.71254587 56.25 111.5625 C55.23421875 111.52318359 54.2184375 111.48386719 53.171875 111.44335938 C52.1921875 111.40146484 51.2125 111.35957031 50.203125 111.31640625 C49.30239258 111.27974854 48.40166016 111.24309082 47.47363281 111.20532227 C45.20403661 111.01693593 43.18437113 110.62633499 41 110 C36.02063332 86.72959292 31.54086319 63.3589484 27 40 C26.67 40 26.34 40 26 40 C25.95210831 40.83493988 25.90421661 41.66987976 25.85487366 42.53012085 C25.40336057 50.38817941 24.94765524 58.24598111 24.48720646 66.10352135 C24.25061879 70.14342812 24.01566897 74.18341643 23.78442383 78.22363281 C23.56131389 82.12066916 23.33395188 86.017436 23.10360527 89.91405106 C23.0163583 91.40274837 22.93065917 92.89153721 22.84651375 94.38041306 C22.72864314 96.46138982 22.60533595 98.54197686 22.48071289 100.62255859 C22.41187393 101.80836517 22.34303497 102.99417175 22.27210999 104.21591187 C22 107 22 107 21 109 C16.70805854 108.86162204 12.41653071 108.71304061 8.125 108.5625 C6.90167969 108.52318359 5.67835938 108.48386719 4.41796875 108.44335938 C3.25136719 108.40146484 2.08476563 108.35957031 0.8828125 108.31640625 C-0.73536377 108.26141968 -0.73536377 108.26141968 -2.38623047 108.20532227 C-5 108 -5 108 -7 107 C-6.23911236 93.78696314 -5.47443359 80.57415169 -4.7049036 67.36161518 C-4.34770622 61.226616 -3.99181902 55.09154665 -3.63891602 48.95629883 C-3.29834803 43.03633427 -2.9543516 37.11657802 -2.60796928 31.19695091 C-2.47637039 28.93758421 -2.34601055 26.67814499 -2.21690559 24.41863441 C-2.03597789 21.25585854 -1.85066113 18.09336832 -1.66430664 14.9309082 C-1.61179749 13.99510925 -1.55928833 13.0593103 -1.50518799 12.09515381 C-1.25861758 7.98188824 -0.98045744 4.01890638 0 0 Z " fill="#3F944D" transform="translate(603,0)"/>
<path d="M0 0 C10.04494398 1.80116298 21.1640392 7.49547226 28 15 C32.02078818 23.91863886 31.53883536 34.21021101 31.44390869 43.83056641 C31.43320098 47.35085503 31.55233304 50.866526 31.66210938 54.38476562 C31.8129471 59.53329894 31.88900439 64.6769915 31.90014648 69.82788086 C31.92762618 74.32964171 32.17990943 78.57558083 33 83 C33.38631592 82.32235596 33.77263184 81.64471191 34.1706543 80.9465332 C42.83095439 65.78045917 51.68340758 50.77607272 61 36 C67.04841586 37.59221543 71.97846213 40.81526306 77.25 44.0625 C79.04659305 45.1580146 80.8434547 46.25308888 82.640625 47.34765625 C83.42985352 47.83242432 84.21908203 48.31719238 85.03222656 48.81665039 C86.97708179 50.0209144 86.97708179 50.0209144 89 51 C88.32911745 54.49235595 86.92784352 57.13347875 85.1484375 60.19921875 C84.55232666 61.23038818 83.95621582 62.26155762 83.34204102 63.32397461 C82.69291748 64.43393799 82.04379395 65.54390137 81.375 66.6875 C80.6950222 67.85738185 80.01525674 69.02738714 79.33569336 70.19750977 C73.59913341 80.05439566 67.73513498 89.83422451 61.84765625 99.6015625 C57.70016444 106.48654891 53.59623411 113.39694761 49.5 120.3125 C48.85361572 121.40296631 48.20723145 122.49343262 47.54125977 123.61694336 C43.33133837 130.72762655 39.15521476 137.85722424 35 145 C29.01001548 142.7581622 23.72284578 139.46113474 18.25 136.1875 C17.18394531 135.57068359 16.11789062 134.95386719 15.01953125 134.31835938 C14.00761719 133.71185547 12.99570312 133.10535156 11.953125 132.48046875 C10.56335449 131.65905396 10.56335449 131.65905396 9.14550781 130.82104492 C5.90370386 128.06949557 6.10156205 125.11710287 5.72789001 121.00700378 C5.65905106 119.89891861 5.5902121 118.79083344 5.51928711 117.64916992 C5.43927963 116.3882402 5.35927216 115.12731049 5.27684021 113.82817078 C5.19360156 112.46227456 5.11043781 111.09637377 5.02734375 109.73046875 C4.93938931 108.32512072 4.85113316 106.91979155 4.7625885 105.51448059 C4.53107721 101.82725982 4.30365118 98.13979814 4.0770874 94.45227051 C3.84488362 90.68482252 3.60879994 86.91761788 3.37304688 83.15039062 C2.91157622 75.76715922 2.45442299 68.38366888 2 61 C1.48372543 61.88263519 0.96745087 62.76527039 0.43553162 63.6746521 C-21.87085878 101.80628817 -21.87085878 101.80628817 -26 108 C-30.14658612 107.41796531 -32.97416902 106.03836446 -36.51953125 103.83984375 C-37.54111328 103.21142578 -38.56269531 102.58300781 -39.61523438 101.93554688 C-40.67033203 101.27619141 -41.72542969 100.61683594 -42.8125 99.9375 C-44.42415039 98.94266602 -44.42415039 98.94266602 -46.06835938 97.92773438 C-48.71645524 96.2917996 -51.36005942 94.64905095 -54 93 C-53.35845671 89.87978673 -52.28554594 87.47441307 -50.69921875 84.71875 C-50.22323242 83.88778809 -49.74724609 83.05682617 -49.25683594 82.20068359 C-48.73895508 81.30945801 -48.22107422 80.41823242 -47.6875 79.5 C-47.14770508 78.56365723 -46.60791016 77.62731445 -46.05175781 76.66259766 C-41.54129259 68.8669098 -36.91941902 61.14036343 -32.265625 53.4296875 C-28.82339392 47.72036122 -25.42689842 41.98414526 -22.03286743 36.24609375 C-16.72796166 27.2779895 -11.41373399 18.31555618 -6.0625 9.375 C-5.56041016 8.53388672 -5.05832031 7.69277344 -4.54101562 6.82617188 C-4.08533203 6.06626953 -3.62964844 5.30636719 -3.16015625 4.5234375 C-2.56666382 3.532229 -2.56666382 3.532229 -1.96118164 2.52099609 C-1 1 -1 1 0 0 Z " fill="#3F944D" transform="translate(998,94)"/>
<path d="M0 0 C7.0401056 5.63723263 10.55128737 12.66399028 11.88671875 21.5234375 C12.79590133 29.89893763 11.18028937 36.92648703 6.23828125 43.82421875 C3.17519434 47.48253434 0.23847032 50.41349734 -4.11328125 52.5234375 C-3.57960938 52.70777344 -3.0459375 52.89210937 -2.49609375 53.08203125 C10.5783148 58.17155015 19.15126909 70.04318243 27.88671875 80.5234375 C28.33450684 81.05807617 28.78229492 81.59271484 29.24365234 82.14355469 C35.88671875 90.10899919 35.88671875 90.10899919 35.88671875 92.5234375 C31.92326008 93.50940498 27.95798179 94.48766588 23.9909668 95.45922852 C22.64541051 95.78986563 21.30034338 96.12250071 19.95581055 96.45727539 C3.5198268 100.54640634 3.5198268 100.54640634 -2.11328125 100.5234375 C-4.57421875 98.63671875 -4.57421875 98.63671875 -6.48828125 95.8359375 C-7.225625 94.8253125 -7.96296875 93.8146875 -8.72265625 92.7734375 C-9.29790039 91.97099609 -9.29790039 91.97099609 -9.88476562 91.15234375 C-11.97969756 88.37464386 -14.35862191 85.86942439 -16.73828125 83.3359375 C-20.44660789 79.34905411 -24.07347087 75.31247031 -27.578125 71.14453125 C-31.47953677 67.02471984 -34.44676104 66.0385757 -40.11328125 65.5234375 C-41.10328125 65.5234375 -42.09328125 65.5234375 -43.11328125 65.5234375 C-42.9117041 66.38509521 -42.71012695 67.24675293 -42.50244141 68.13452148 C-41.74537411 71.37173428 -40.9887533 74.60905078 -40.23242188 77.84643555 C-39.90675075 79.2400312 -39.58090848 80.63358686 -39.25488281 82.02709961 C-38.4785949 85.34537325 -37.70413891 88.66404772 -36.93457031 91.98388672 C-36.44088854 94.11153189 -35.94390744 96.23842113 -35.44042969 98.36376953 C-34.62458951 101.8738967 -34.11328125 104.89799065 -34.11328125 108.5234375 C-38.49091698 109.52308501 -42.86917864 110.51992904 -47.24804688 111.51416016 C-48.73813189 111.85290442 -50.22804195 112.19241919 -51.71777344 112.53271484 C-53.85696809 113.02122601 -55.99677304 113.50697841 -58.13671875 113.9921875 C-58.80448334 114.14530396 -59.47224792 114.29842041 -60.1602478 114.45617676 C-64.88553784 115.5234375 -64.88553784 115.5234375 -67.11328125 115.5234375 C-70.3087365 103.97983154 -73.0438291 92.36235749 -75.66015625 80.67578125 C-76.08034449 78.80585473 -76.50061377 76.93594643 -76.92095947 75.0660553 C-77.79372762 71.17969507 -78.66398948 67.29278337 -79.53271484 63.40551758 C-80.64482771 58.43116504 -81.76568222 53.4588256 -82.8886528 48.48691463 C-83.75603133 44.64028932 -84.61761667 40.79238351 -85.47757721 36.9440937 C-85.88856551 35.10925662 -86.30162235 33.27488156 -86.71681976 31.44099236 C-87.29483048 28.88507271 -87.86470984 26.32746779 -88.43261719 23.76928711 C-88.60399704 23.01961166 -88.77537689 22.26993622 -88.95195007 21.49754333 C-89.84427511 17.43357303 -90.28913483 13.68304898 -90.11328125 9.5234375 C-82.52466378 7.84389271 -74.93567689 6.16602827 -67.34622002 4.49028111 C-63.82177747 3.71203172 -60.29746256 2.93321401 -56.7734375 2.15307617 C-53.36968506 1.39958621 -49.96559985 0.647617 -46.56128311 -0.10331917 C-44.63680546 -0.52823721 -42.71267151 -0.95471094 -40.7885437 -1.38121033 C-39.60777252 -1.64140457 -38.42700134 -1.90159882 -37.21044922 -2.16967773 C-36.17564423 -2.39840073 -35.14083923 -2.62712372 -34.07467651 -2.86277771 C-22.67285536 -5.22594229 -9.99370546 -6.98266296 0 0 Z M-43.61328125 22.4609375 C-44.84691406 22.75387695 -44.84691406 22.75387695 -46.10546875 23.05273438 C-48.11101266 23.53080007 -50.11260211 24.02540519 -52.11328125 24.5234375 C-51.55804142 29.48286119 -50.81535216 34.18507924 -49.55078125 39.0234375 C-49.28136719 40.065 -49.01195312 41.1065625 -48.734375 42.1796875 C-48.52941406 42.953125 -48.32445312 43.7265625 -48.11328125 44.5234375 C-39.47500025 43.9475521 -31.08085802 42.27022141 -23.86328125 37.2734375 C-21.5078907 33.5721095 -21.20788631 30.79172793 -22.11328125 26.5234375 C-23.43489552 23.45469852 -23.43489552 23.45469852 -26.11328125 21.5234375 C-32.45510984 20.18831569 -37.38631643 20.89405466 -43.61328125 22.4609375 Z " fill="#3F944D" transform="translate(471.11328125,22.4765625)"/>
<path d="M0 0 C3.1462327 1.44680774 4.85970387 3.6411849 7.140625 6.234375 C8.12326315 7.33762697 9.10635126 8.44047831 10.08984375 9.54296875 C10.59435059 10.1138623 11.09885742 10.68475586 11.61865234 11.27294922 C14.02714634 13.98124933 16.48986528 16.63845689 18.953125 19.296875 C19.44619141 19.83086914 19.93925781 20.36486328 20.44726562 20.91503906 C24.92117792 25.75843579 29.42265144 30.57595359 33.92456055 35.39331055 C39.19435539 41.03510801 44.43347197 46.70468481 49.6640625 52.3828125 C51.17554996 54.02225657 52.68904554 55.65982462 54.203125 57.296875 C60.55058695 64.16136585 66.86395757 71.05504525 73.140625 77.984375 C68.88264379 83.13356158 64.38183913 87.72979354 59.453125 92.234375 C58.13634034 93.44750606 56.81992047 94.66103321 55.50390625 95.875 C54.92938721 96.40125977 54.35486816 96.92751953 53.76293945 97.46972656 C52.18634399 98.94169019 50.65633547 100.45001581 49.140625 101.984375 C45.67667185 100.52505993 43.7658217 98.69614236 41.328125 95.859375 C37.06546647 90.998948 32.69305785 86.25776992 28.265625 81.546875 C27.61102295 80.84868652 26.9564209 80.15049805 26.28198242 79.43115234 C23.60255053 76.57841695 20.9205995 73.73974332 18.140625 70.984375 C17.3671875 71.76941406 16.59375 72.55445313 15.796875 73.36328125 C10.59744672 78.61623429 5.41172369 83.80686579 -0.23828125 88.58203125 C-0.77324219 89.04480469 -1.30820313 89.50757813 -1.859375 89.984375 C-2.44589844 90.45746094 -3.03242187 90.93054688 -3.63671875 91.41796875 C-5.04866429 92.89748739 -5.04866429 92.89748739 -4.8671875 94.84375 C-3.40071018 97.95859329 -1.21908425 99.86476128 1.265625 102.234375 C5.17016142 106.01872344 8.9119377 109.85832001 12.4375 114 C15.09745755 117.09921659 17.87471459 120.09323159 20.63671875 123.1015625 C22.140625 124.984375 22.140625 124.984375 22.140625 126.984375 C20.68945313 128.43188477 20.68945313 128.43188477 18.671875 130.11328125 C14.19725049 133.91809314 9.91208005 137.89167806 5.640625 141.921875 C4.91359375 142.60572266 4.1865625 143.28957031 3.4375 143.99414062 C1.67070786 145.65632007 -0.09489548 147.31974139 -1.859375 148.984375 C-6.79387369 144.93286252 -11.23924662 140.62929473 -15.546875 135.921875 C-16.15063965 135.26848145 -16.7544043 134.61508789 -17.37646484 133.94189453 C-19.20747854 131.95913671 -21.03347512 129.97184118 -22.859375 127.984375 C-23.9096483 126.84718691 -24.96040243 125.71044265 -26.01171875 124.57421875 C-29.45244573 120.85437758 -32.88543662 117.1274326 -36.31835938 113.40039062 C-42.75172854 106.41730767 -49.21060629 99.45919876 -55.69628906 92.5246582 C-60.35274732 87.54069139 -64.96380894 82.51704105 -69.5546875 77.47265625 C-71.60836697 75.25537859 -73.70531006 73.10369696 -75.859375 70.984375 C-74.5155537 67.95800228 -73.0606976 65.97887517 -70.62890625 63.7421875 C-69.99017578 63.15050781 -69.35144531 62.55882812 -68.69335938 61.94921875 C-68.02626953 61.34207031 -67.35917969 60.73492187 -66.671875 60.109375 C-66.02412109 59.50996094 -65.37636719 58.91054687 -64.70898438 58.29296875 C-60.5079418 54.42347698 -56.21481741 50.67887479 -51.859375 46.984375 C-48.74101167 48.35790428 -46.74072072 49.90276473 -44.43359375 52.3984375 C-43.48516602 53.41744141 -43.48516602 53.41744141 -42.51757812 54.45703125 C-41.86724609 55.16730469 -41.21691406 55.87757813 -40.546875 56.609375 C-39.5887793 57.63998047 -39.5887793 57.63998047 -38.61132812 58.69140625 C-34.27146171 63.37863786 -30.0418552 68.15650531 -25.859375 72.984375 C-20.62244871 68.53883704 -15.48088197 64.00644087 -10.421875 59.359375 C-9.69033203 58.70453125 -8.95878906 58.0496875 -8.20507812 57.375 C-7.51478516 56.73820312 -6.82449219 56.10140625 -6.11328125 55.4453125 C-5.48752197 54.87603027 -4.8617627 54.30674805 -4.21704102 53.72021484 C-2.44865619 51.82653892 -2.44865619 51.82653892 -2.859375 47.984375 C-4.58926063 45.8175595 -6.30184603 43.89152302 -8.234375 41.921875 C-9.33122196 40.77130291 -10.42756719 39.62025234 -11.5234375 38.46875 C-12.0793457 37.89060547 -12.63525391 37.31246094 -13.20800781 36.71679688 C-15.72302579 34.07833331 -18.16703844 31.3774601 -20.609375 28.671875 C-21.42921875 27.76824219 -22.2490625 26.86460937 -23.09375 25.93359375 C-23.96773437 24.96873047 -23.96773437 24.96873047 -24.859375 23.984375 C-21.78147606 17.12633804 -15.39024794 12.48701516 -9.77734375 7.69921875 C-7.93088819 6.04831449 -6.28195677 4.30862665 -4.609375 2.484375 C-1.859375 -0.015625 -1.859375 -0.015625 0 0 Z " fill="#3F944D" transform="translate(75.859375,192.015625)"/>
<path d="M0 0 C2.44726761 1.20010551 3.02974965 2.40474591 4.2355957 4.83251953 C4.63327148 5.62787109 5.03094727 6.42322266 5.44067383 7.24267578 C5.84092773 8.07927734 6.24118164 8.91587891 6.65356445 9.77783203 C7.0731543 10.60669922 7.49274414 11.43556641 7.92504883 12.28955078 C10.97321037 18.50639427 10.97321037 18.50639427 9.84106445 21.90283203 C7.40463516 23.36978516 5.01568261 24.66383783 2.47387695 25.92236328 C1.72451874 26.30341721 0.97516052 26.68447113 0.20309448 27.07707214 C-2.20466321 28.29914736 -4.61895555 29.5076014 -7.03393555 30.71533203 C-9.40591395 31.91219522 -11.77646706 33.11184249 -14.14678955 34.3119812 C-15.68247544 35.08941232 -17.21872455 35.86573197 -18.7555542 36.64089966 C-24.62532014 39.60838798 -30.4180944 42.69173223 -36.15893555 45.90283203 C-35.15450413 49.14791814 -34.05592261 52.10885791 -32.53393555 55.15283203 C-31.15893555 57.90283203 -31.15893555 57.90283203 -31.15893555 59.90283203 C-26.65973559 57.5933992 -22.1614907 55.28211957 -17.6640625 52.96923828 C-16.13892317 52.18522059 -14.61353905 51.4016789 -13.08789062 50.61865234 C-10.87522371 49.48290864 -8.6633751 48.34559034 -6.4519043 47.20751953 C-5.73332245 46.83826355 -5.0147406 46.46900757 -4.27438354 46.08856201 C0.79705224 43.47169969 5.79554147 40.7435887 10.74609375 37.90332031 C12.84106445 36.90283203 12.84106445 36.90283203 15.84106445 36.90283203 C19.14106445 43.17283203 22.44106445 49.44283203 25.84106445 55.90283203 C23.3543436 58.38955289 21.95741075 59.53761268 18.96801758 61.06347656 C18.19711792 61.46043732 17.42621826 61.85739807 16.63195801 62.26638794 C15.80377563 62.68524261 14.97559326 63.10409729 14.12231445 63.53564453 C13.26802856 63.97294891 12.41374268 64.4102533 11.53356934 64.86080933 C9.72941367 65.78297041 7.92383407 66.7023502 6.11694336 67.61914062 C3.34863845 69.02398841 0.58475922 70.43724365 -2.1784668 71.85205078 C-3.9321204 72.74707723 -5.6860185 73.64162482 -7.44018555 74.53564453 C-8.68245911 75.16999924 -8.68245911 75.16999924 -9.9498291 75.81716919 C-10.72072876 76.20782562 -11.49162842 76.59848206 -12.28588867 77.00097656 C-13.30156921 77.5170195 -13.30156921 77.5170195 -14.33776855 78.04348755 C-16.15893555 78.90283203 -16.15893555 78.90283203 -19.15893555 79.90283203 C-18.58143555 81.03462891 -18.00393555 82.16642578 -17.40893555 83.33251953 C-16.65872564 84.8141841 -15.90873708 86.29596076 -15.15893555 87.77783203 C-14.77737305 88.52419922 -14.39581055 89.27056641 -14.00268555 90.03955078 C-13.64174805 90.75498047 -13.28081055 91.47041016 -12.90893555 92.20751953 C-12.40620117 93.19727783 -12.40620117 93.19727783 -11.89331055 94.20703125 C-11.15893555 95.90283203 -11.15893555 95.90283203 -11.15893555 97.90283203 C-10.58264404 97.6021582 -10.00635254 97.30148438 -9.41259766 96.99169922 C-8.18682007 96.35216309 -8.18682007 96.35216309 -6.9362793 95.69970703 C-6.01572754 95.21937012 -5.09517578 94.7390332 -4.14672852 94.24414062 C-2.09513283 93.17384283 -0.04337214 92.10386125 2.00854492 91.03417969 C7.44747762 88.19824176 12.88358228 85.35713971 18.3137207 82.50439453 C19.34553467 81.96331055 20.37734863 81.42222656 21.44042969 80.86474609 C23.42403235 79.82436707 25.40665394 78.78211489 27.38818359 77.73779297 C28.2930249 77.26374023 29.19786621 76.7896875 30.13012695 76.30126953 C30.92112793 75.88538574 31.71212891 75.46950195 32.52709961 75.04101562 C34.9230816 73.86248977 37.35039011 72.86281964 39.84106445 71.90283203 C42.96445944 76.9474906 46.00042201 82.03369797 48.77856445 87.27783203 C49.20008789 88.06931641 49.62161133 88.86080078 50.0559082 89.67626953 C50.99573421 92.34144777 50.89181742 93.30414823 49.84106445 95.90283203 C48.00952148 97.20800781 48.00952148 97.20800781 45.59887695 98.34814453 C44.70789307 98.77973877 43.81690918 99.21133301 42.89892578 99.65600586 C41.93108154 100.1087085 40.9632373 100.56141113 39.96606445 101.02783203 C37.93006857 102.01177361 35.89492474 102.99748006 33.8605957 103.98486328 C32.8391748 104.47680176 31.81775391 104.96874023 30.76538086 105.47558594 C26.68096778 107.46903049 22.66405178 109.57796676 18.65356445 111.71533203 C13.10629636 114.65923472 7.54811044 117.58029909 1.9699707 120.46533203 C1.37152847 120.77492355 0.77308624 121.08451508 0.1565094 121.40348816 C-2.8059924 122.93550331 -5.76944816 124.46562991 -8.73388672 125.99389648 C-14.34686501 128.8950469 -19.90692411 131.83315587 -25.34985352 135.04418945 C-27.15893555 135.90283203 -27.15893555 135.90283203 -30.15893555 135.90283203 C-30.71242676 134.82090576 -31.26591797 133.73897949 -31.83618164 132.62426758 C-33.94119781 128.51025807 -36.04767665 124.39699882 -38.15454102 120.28393555 C-39.05661685 118.52241294 -39.95832478 116.76070188 -40.85961914 114.9987793 C-46.05678755 104.8396216 -51.29485212 94.70454753 -56.62220764 84.61299133 C-60.87527389 76.5555907 -65.05687779 68.46223487 -69.23120117 60.36376953 C-72.1507846 54.71594261 -75.10961822 49.11436727 -78.30029297 43.61425781 C-79.15893555 41.90283203 -79.15893555 41.90283203 -79.15893555 39.90283203 C-78.65257568 39.65227051 -78.14621582 39.40170898 -77.62451172 39.14355469 C-67.62826028 34.18979934 -57.67571493 29.16945218 -47.81787109 23.9453125 C-39.49577356 19.53814122 -31.12956873 15.21652331 -22.76025391 10.89990234 C-21.67494385 10.33883789 -20.58963379 9.77777344 -19.47143555 9.19970703 C-18.41698242 8.65636719 -17.3625293 8.11302734 -16.27612305 7.55322266 C-12.28545271 5.44036775 -8.38404305 3.18085621 -4.4987793 0.88037109 C-2.15893555 -0.09716797 -2.15893555 -0.09716797 0 0 Z " fill="#3F944D" transform="translate(261.158935546875,77.09716796875)"/>
<path d="M0 0 C2.24243164 1.88598633 2.24243164 1.88598633 4.66015625 4.33203125 C5.53607422 5.21310547 6.41199219 6.09417969 7.31445312 7.00195312 C8.22130859 7.92943359 9.12816406 8.85691406 10.0625 9.8125 C11.42858398 11.18631836 11.42858398 11.18631836 12.82226562 12.58789062 C17.67714947 17.50001703 17.67714947 17.50001703 20 20 C20.9135022 20.95072388 20.9135022 20.95072388 21.84545898 21.9206543 C23.56142969 25.01114329 22.95683306 26.62885584 22 30 C20.86859239 32.78152295 19.55307976 35.45164827 18.203125 38.1328125 C17.81817871 38.91377289 17.43323242 39.69473328 17.03662109 40.49935913 C16.21053024 42.17381007 15.3810366 43.84658577 14.54846191 45.51782227 C12.34929813 49.93351654 10.17574712 54.36179597 8 58.7890625 C7.56600891 59.67068054 7.13201782 60.55229858 6.68487549 61.46063232 C3.09896478 68.7595437 -0.35845378 76.1088506 -3.75 83.5 C-10.6149368 98.43943656 -17.79581739 113.22203543 -25 128 C-28.38851954 127.26045074 -29.65307605 126.62335775 -31.8125 123.875 C-35.60099 119.31879837 -39.73703427 115.17150377 -43.9375 111 C-44.62497314 110.31663574 -45.31244629 109.63327148 -46.02075195 108.92919922 C-47.67852904 107.28412142 -49.33817749 105.64098964 -51 104 C-49.51095825 100.10391502 -47.75621287 96.40902982 -45.875 92.6875 C-45.33617187 91.61886719 -44.79734375 90.55023438 -44.2421875 89.44921875 C-43.83226562 88.64097656 -43.42234375 87.83273437 -43 87 C-50.5922377 78.25555279 -58.76297253 70.13111119 -67 62 C-68.55460937 62.79277344 -68.55460937 62.79277344 -70.140625 63.6015625 C-71.51000654 64.27687395 -72.87982119 64.95130765 -74.25 65.625 C-74.93191406 65.975625 -75.61382813 66.32625 -76.31640625 66.6875 C-81.45292289 69.18095468 -81.45292289 69.18095468 -83.93383789 68.36035156 C-88.56857528 65.30886193 -92.28736571 61.03885749 -96.1875 57.125 C-97.11498047 56.21363281 -98.04246094 55.30226563 -98.99804688 54.36328125 C-99.87912109 53.48285156 -100.76019531 52.60242188 -101.66796875 51.6953125 C-102.47516357 50.89109863 -103.2823584 50.08688477 -104.11401367 49.25830078 C-105.95249851 47.05687881 -106.6237322 45.80097113 -107 43 C-105.34218878 42.28950948 -103.68437742 41.57901927 -102.02656555 40.86853027 C-100.48944391 40.20976236 -98.95232447 39.55098933 -97.41520691 38.89221191 C-92.92635017 36.96838888 -88.43745141 35.04466398 -83.94848633 33.12109375 C-73.8891048 28.81040624 -63.8301979 24.49861576 -53.77230835 20.18444824 C-49.30138354 18.26673265 -44.83027978 16.34943444 -40.35913658 14.43222809 C-37.21226622 13.08283023 -34.06549628 11.73319912 -30.91894531 10.38305664 C-27.36681476 8.85888852 -23.81427951 7.33566514 -20.26171875 5.8125 C-19.19575974 5.3549231 -18.12980072 4.89734619 -17.03153992 4.42590332 C-16.0449086 4.00305054 -15.05827728 3.58019775 -14.04174805 3.14453125 C-13.18469772 2.77690674 -12.3276474 2.40928223 -11.44462585 2.03051758 C-10.63789932 1.69044678 -9.83117279 1.35037598 -9 1 C-8.11270203 0.62361893 -7.22540405 0.24723785 -6.31121826 -0.14054871 C-3.57552734 -1.15784471 -2.64422286 -1.19699613 0 0 Z M-13 33 C-22.9 37.95 -32.8 42.9 -43 48 C-43 51.54957438 -42.51411281 51.88424715 -40.15625 54.35546875 C-39.56972656 54.97744141 -38.98320313 55.59941406 -38.37890625 56.24023438 C-37.75886719 56.88283203 -37.13882812 57.52542969 -36.5 58.1875 C-35.87996094 58.84169922 -35.25992187 59.49589844 -34.62109375 60.16992188 C-33.0872384 61.78636944 -31.54678589 63.39593746 -30 65 C-25.57257108 59.71041287 -22.50871902 53.92690676 -19.25 47.875 C-18.64800781 46.77800781 -18.04601563 45.68101562 -17.42578125 44.55078125 C-16.85730469 43.50019531 -16.28882813 42.44960938 -15.703125 41.3671875 C-14.92437012 39.93028564 -14.92437012 39.93028564 -14.12988281 38.46435547 C-12.79161373 35.99733291 -12.79161373 35.99733291 -13 33 Z " fill="#3F944D" transform="translate(1211,250)"/>
<path d="M0 0 C33.66 0 67.32 0 102 0 C102 48.51 102 97.02 102 147 C99.34095076 144.34095076 98.08470834 142.58240576 96.390625 139.3359375 C95.89151611 138.39194092 95.39240723 137.44794434 94.87817383 136.4753418 C94.34087646 135.452229 93.8035791 134.42911621 93.25 133.375 C69.24132684 88.46832204 39.78095549 45.62811206 5.53515625 7.87890625 C3.50439048 5.3934143 1.78037851 2.67056776 0 0 Z " fill="#3F944C" transform="translate(1061,575)"/>
<path d="M0 0 C5.28 0 10.56 0 16 0 C16 131.67 16 263.34 16 399 C8 398 8 398 0 395 C0 264.65 0 134.3 0 0 Z " fill="#1A3F29" transform="translate(66,591)"/>
<path d="M0 0 C2.28308597 2.98304651 4.12167466 5.93633102 5.86328125 9.26953125 C6.41258301 10.31077148 6.96188477 11.35201172 7.52783203 12.42480469 C8.11677246 13.54274414 8.70571289 14.66068359 9.3125 15.8125 C27.90279256 50.72262638 50.17085647 84.20304922 75 115 C75.804375 115.99902344 76.60875 116.99804688 77.4375 118.02734375 C81.44684879 122.9645317 85.53025748 127.8113972 89.78515625 132.5390625 C91 134 91 134 91 135 C79.28273212 135.02312215 67.56546963 135.04091443 55.84818363 135.05181217 C50.40797688 135.05704128 44.96778569 135.06413943 39.52758789 135.07543945 C34.28214298 135.08626735 29.03671308 135.09227662 23.79125786 135.09487724 C21.78529054 135.09673167 19.77932408 135.10035262 17.77336311 135.10573006 C14.97397176 135.11293919 12.17464321 135.113991 9.37524414 135.11352539 C8.53727295 135.11712067 7.69930176 135.12071594 6.8359375 135.12442017 C1.11405216 135.11405216 1.11405216 135.11405216 0 134 C-0.09627113 132.26640402 -0.12187568 130.52885354 -0.12025452 128.79258728 C-0.12162918 127.66371597 -0.12300385 126.53484467 -0.12442017 125.37176514 C-0.12082489 124.12236145 -0.11722961 122.87295776 -0.11352539 121.58569336 C-0.11367142 120.27856888 -0.11381744 118.9714444 -0.1139679 117.62471008 C-0.11425586 114.02982901 -0.10835928 110.43498103 -0.10139394 106.84010768 C-0.09516026 103.08713748 -0.09455659 99.3341666 -0.09336853 95.58119202 C-0.09025526 88.46969174 -0.08204192 81.35820675 -0.07201904 74.24671322 C-0.06085778 66.15252934 -0.05534742 58.05834474 -0.05032361 49.96415508 C-0.03985931 33.30942775 -0.02225994 16.65471582 0 0 Z " fill="#3E914C" transform="translate(82,1096)"/>
<path d="M0 0 C12.0965625 -0.0928125 12.0965625 -0.0928125 24.4375 -0.1875 C26.96591553 -0.21481201 29.49433105 -0.24212402 32.09936523 -0.27026367 C34.12743656 -0.27903431 36.15551322 -0.28667688 38.18359375 -0.29296875 C39.21713989 -0.30831665 40.25068604 -0.32366455 41.31555176 -0.33947754 C48.54764027 -0.3420632 55.51032315 0.21524952 61.33984375 4.8671875 C61.86707031 5.52976562 62.39429688 6.19234375 62.9375 6.875 C63.48277344 7.53242187 64.02804687 8.18984375 64.58984375 8.8671875 C68.95099993 15.46328522 68.6946369 22.32426226 68 30 C66.37250815 35.95514065 63.06357352 39.4944491 58 43 C55.37002217 44.44791198 52.72519363 45.73137538 50 47 C50.72832031 47.53238281 51.45664062 48.06476563 52.20703125 48.61328125 C55.21786079 51.18617195 57.44021985 53.96395742 59.6875 57.1875 C60.1088623 57.78393311 60.53022461 58.38036621 60.96435547 58.99487305 C75 79.22332414 75 79.22332414 75 83 C67.66322878 85.05202293 60.11474814 86.2470823 53 83 C45.60893742 76.47330714 40.63955949 66.50991135 36.05387878 57.91340637 C33.87741244 53.95234329 32.19194885 51.74804231 28 50 C24.7 49.34 21.4 48.68 18 48 C18 59.55 18 71.1 18 83 C12.06 83 6.12 83 0 83 C0 55.61 0 28.22 0 0 Z M18 14 C18 20.6 18 27.2 18 34 C24.29912956 34.08628945 30.58033274 34.01562384 36.875 33.75 C38.72738281 33.68039062 38.72738281 33.68039062 40.6171875 33.609375 C44.50123377 32.90970847 46.20998798 31.73853579 49 29 C50.3899408 26.2201184 50.18488204 24.0813674 50 21 C49.15752669 18.47258007 48.57437124 17.36770496 46.328125 15.9296875 C37.97847732 12.59543222 26.85780561 13.89197798 18 14 Z " fill="#159647" transform="translate(912,1583)"/>
<path d="M0 0 C22.15389362 6.15780137 22.15389362 6.15780137 32 10 C30.67747356 17.60863497 28.62150654 24.83601863 26.25390625 32.1796875 C25.88646805 33.33486374 25.51902985 34.49003998 25.14045715 35.68022156 C24.35662243 38.14301452 23.57046655 40.60506976 22.78216553 43.06643677 C20.93818311 48.82451017 19.10786485 54.58690933 17.27785492 60.34943581 C16.87117493 61.6297803 16.46429922 62.91006264 16.05722809 64.19028282 C12.42138135 75.62507585 8.86353803 87.0819752 5.375 98.5625 C5.14362335 99.32342957 4.9122467 100.08435913 4.67385864 100.86834717 C3.44526796 104.91103599 2.2204208 108.95483585 1 113 C-6.3507196 111.6840247 -13.43466628 109.84318568 -20.5625 107.625 C-21.55830078 107.33367187 -22.55410156 107.04234375 -23.58007812 106.7421875 C-24.52431641 106.44828125 -25.46855469 106.154375 -26.44140625 105.8515625 C-27.72059937 105.46218506 -27.72059937 105.46218506 -29.02563477 105.06494141 C-31 104 -31 104 -31.7335968 102.33467102 C-32.10653252 99.06638366 -31.23544874 96.71126949 -30.23681641 93.58032227 C-30.03684052 92.94357071 -29.83686462 92.30681915 -29.63082886 91.65077209 C-28.96406373 89.5361215 -28.28282995 87.42642498 -27.6015625 85.31640625 C-27.12752693 83.82247126 -26.65443023 82.32823808 -26.18222046 80.83372498 C-24.92877604 76.87503257 -23.66320453 72.92032141 -22.39489746 68.96636963 C-21.14330086 65.05847901 -19.90183917 61.14737776 -18.66015625 57.23632812 C-17.19778833 52.63132077 -15.73446974 48.02663486 -14.26470947 43.42398071 C-11.91206822 36.05229689 -9.57889215 28.67555565 -7.29980469 21.28076172 C-7.08849852 20.59569896 -6.87719234 19.9106362 -6.65948296 19.20481396 C-5.66699555 15.98421311 -4.67897881 12.76236967 -3.69644165 9.53871155 C-3.3536618 8.42241867 -3.01088196 7.30612579 -2.65771484 6.15600586 C-2.35989105 5.1790123 -2.06206726 4.20201874 -1.75521851 3.19541931 C-1 1 -1 1 0 0 Z " fill="#3F944D" transform="translate(848,35)"/>
<path d="M0 0 C76.23 0 152.46 0 231 0 C231 5.28 231 10.56 231 16 C154.77 16 78.54 16 0 16 C0 10.72 0 5.44 0 0 Z " fill="#1A3F29" transform="translate(916,1231)"/>
<path d="M0 0 C0.97469238 0.00974854 1.94938477 0.01949707 2.95361328 0.02954102 C12.7584662 0.2715855 19.78826221 1.50575573 26.75 8.8125 C31.5929947 14.87367128 32.1875 18.53887732 32.1875 26.4375 C26.2475 26.4375 20.3075 26.4375 14.1875 26.4375 C13.1975 24.1275 12.2075 21.8175 11.1875 19.4375 C8.76377056 16.79245006 7.50197871 16.47573221 3.91015625 16.0390625 C2.70230469 16.04679687 1.49445313 16.05453125 0.25 16.0625 C-0.95527344 16.05476563 -2.16054688 16.04703125 -3.40234375 16.0390625 C-7.03731116 16.4637666 -8.96089838 17.17111513 -11.8125 19.4375 C-12.5625 22.4375 -12.5625 22.4375 -11.8125 25.4375 C-8.89854899 28.17133273 -6.06009914 29.13243412 -2.234375 30.12109375 C-0.61595703 30.55325195 -0.61595703 30.55325195 1.03515625 30.99414062 C2.71931641 31.43016602 2.71931641 31.43016602 4.4375 31.875 C25.67575052 37.37617665 25.67575052 37.37617665 32.1875 46.4375 C35.60750844 53.98092287 36.12389666 60.9474919 33.75 68.875 C31.16120192 75.50195845 26.81053063 80.33488507 20.28027344 83.30493164 C14.13928021 85.62325962 8.32957045 85.94373074 1.8125 85.875 C0.79534912 85.86597656 -0.22180176 85.85695313 -1.26977539 85.84765625 C-10.83923057 85.62623719 -17.96411155 84.3328422 -25.25 77.8125 C-29.97515662 72.60221436 -33.0049673 66.4321722 -33.0625 59.3125 C-32.93875 57.889375 -32.93875 57.889375 -32.8125 56.4375 C-27.09209989 55.6054418 -21.59009884 55.31713336 -15.8125 55.4375 C-15.57015625 56.04078125 -15.3278125 56.6440625 -15.078125 57.265625 C-12.46535274 63.55705171 -12.46535274 63.55705171 -7.8125 68.4375 C-4.51262125 69.53745958 -1.97217713 69.60497591 1.5 69.625 C2.60988281 69.63917969 3.71976563 69.65335938 4.86328125 69.66796875 C8.32138837 69.42821749 10.99797093 68.78045961 14.1875 67.4375 C16.12301857 64.49214565 16.18951436 62.39922719 16.375 58.875 C15.58554064 55.44514504 15.58554064 55.44514504 13.47412109 54.33007812 C6.76401702 51.5132339 -0.0376931 49.59761696 -7.08398438 47.81445312 C-16.69129677 45.23516735 -23.56202051 41.21123234 -28.91796875 32.67578125 C-31.1480285 27.09576274 -30.92825235 19.52617066 -28.90234375 13.91796875 C-22.27519012 2.77326988 -12.19599715 -0.13504581 0 0 Z " fill="#159647" transform="translate(508.8125,1581.5625)"/>
<path d="M0 0 C20.46 0 40.92 0 62 0 C62 4.62 62 9.24 62 14 C47.15 14 32.3 14 17 14 C17 19.94 17 25.88 17 32 C30.86 32 44.72 32 59 32 C59 36.62 59 41.24 59 46 C45.14 46 31.28 46 17 46 C17 53.59 17 61.18 17 69 C32.18 69 47.36 69 63 69 C63 73.62 63 78.24 63 83 C42.21 83 21.42 83 0 83 C0 55.61 0 28.22 0 0 Z " fill="#159647" transform="translate(690,1583)"/>
<path d="M0 0 C6.27 0 12.54 0 19 0 C22.69628969 7.97199776 26.07980117 16.01775044 29.3125 24.1875 C30.08193234 26.12488599 30.85217206 28.06194977 31.62246704 29.99899292 C32.17468603 31.38780258 32.72657914 32.77674185 33.27816772 34.165802 C35.61484862 40.04587994 37.97558262 45.91612241 40.33984375 51.78515625 C41.445366 54.53355356 42.55055347 57.28208522 43.65560913 60.03067017 C44.38482611 61.84262011 45.11515157 63.65412435 45.84658813 65.46517944 C46.87484268 68.01198694 47.89881483 70.56047734 48.921875 73.109375 C49.23378281 73.8788295 49.54569061 74.648284 49.86705017 75.4410553 C52 80.77223028 52 80.77223028 52 83 C45.73 83 39.46 83 33 83 C29.88590422 76.44400889 27.78700915 71.14803659 26 64 C15.44 64 4.88 64 -6 64 C-6.99 67.3 -7.98 70.6 -9 74 C-10.21876703 77.0734125 -11.5978257 80.00224804 -13 83 C-19.27 83 -25.54 83 -32 83 C-24.67037399 63.51126982 -17.16369309 44.09598397 -9.57525635 24.7066803 C-9.09327789 23.4751548 -9.09327789 23.4751548 -8.6015625 22.21875 C-8.28878357 21.41968735 -7.97600464 20.62062469 -7.65374756 19.79734802 C-5.07655555 13.20805536 -2.53139908 6.60704933 0 0 Z M9 22 C7.49223384 26.10135565 5.99512424 30.20652067 4.5 34.3125 C4.07074219 35.47974609 3.64148438 36.64699219 3.19921875 37.84960938 C2.79316406 38.96787109 2.38710938 40.08613281 1.96875 41.23828125 C1.59169922 42.26993408 1.21464844 43.30158691 0.82617188 44.36450195 C-0.14956274 47.01678062 -0.14956274 47.01678062 0 50 C6.6 50 13.2 50 20 50 C17.3663063 40.39476416 13.67507822 31.24307344 10 22 C9.67 22 9.34 22 9 22 Z " fill="#159647" transform="translate(389,1583)"/>
<path d="M0 0 C5.61 0 11.22 0 17 0 C17.01981934 1.52286621 17.03963867 3.04573242 17.06005859 4.61474609 C17.13649681 10.29915068 17.22515398 15.98331197 17.31738281 21.66748047 C17.35551527 24.12120742 17.39039473 26.57498728 17.421875 29.02880859 C17.46786857 32.56887642 17.52580538 36.10858493 17.5859375 39.6484375 C17.59748871 40.73426117 17.60903992 41.82008484 17.62094116 42.93881226 C17.62582032 54.76229922 17.62582032 54.76229922 22.5 65.0625 C26.33422397 68.03402358 28.4821938 68.18435597 33.3125 68.25 C34.44300781 68.27578125 35.57351563 68.3015625 36.73828125 68.328125 C40.31256967 67.96855587 42.13569204 67.11844838 45 65 C48.12980646 60.46178063 48.11906759 54.61780959 48.20532227 49.27001953 C48.22526749 48.16933136 48.24521271 47.06864319 48.26576233 45.93460083 C48.28247482 44.76251068 48.29918732 43.59042053 48.31640625 42.3828125 C48.33718735 41.17051971 48.35796844 39.95822693 48.37937927 38.709198 C48.44460982 34.8478547 48.50363651 30.98644509 48.5625 27.125 C48.60571041 24.50259739 48.6493255 21.88020141 48.69335938 19.2578125 C48.80026407 12.83860913 48.90160599 6.41933924 49 0 C54.61 0 60.22 0 66 0 C66.0680727 7.91109447 66.12298583 15.82195704 66.15543652 23.73326683 C66.17101978 27.40773878 66.19212165 31.08199806 66.22631836 34.75634766 C66.25917666 38.30956709 66.27690804 41.86258338 66.28463173 45.41594315 C66.29278316 47.41541501 66.31615924 49.4148064 66.33988953 51.41415405 C66.34166531 61.1360694 65.70285376 70.17547382 58.74609375 77.53125 C51.12541657 83.94148405 42.9089833 84.22603703 33.375 84.3125 C31.81072266 84.35600586 31.81072266 84.35600586 30.21484375 84.40039062 C21.26268975 84.47303607 13.80843006 82.83452668 7.0625 76.6875 C1.08084334 70.10064044 -0.13188965 62.5156935 -0.11352539 53.81103516 C-0.11344986 52.61024323 -0.11337433 51.40945129 -0.11329651 50.17227173 C-0.10813522 48.89081268 -0.10297394 47.60935364 -0.09765625 46.2890625 C-0.09578895 44.95242364 -0.09436652 43.61578408 -0.09336853 42.27914429 C-0.08956795 38.77750731 -0.07975891 35.27591244 -0.06866455 31.77429199 C-0.05839732 28.19458587 -0.05385957 24.61487288 -0.04882812 21.03515625 C-0.03813422 14.02341856 -0.02055758 7.01171564 0 0 Z " fill="#159647" transform="translate(798,1583)"/>
<path d="M0 0 C7.445625 -0.061875 14.89125 -0.12375 22.5625 -0.1875 C24.90029541 -0.21481201 27.23809082 -0.24212402 29.64672852 -0.27026367 C31.51578252 -0.2790319 33.38484228 -0.28667504 35.25390625 -0.29296875 C36.21131714 -0.30831665 37.16872803 -0.32366455 38.15515137 -0.33947754 C46.56310494 -0.34274446 52.19972351 1.69072488 58.4921875 7.390625 C64.08364704 13.35871134 64.37983954 21.11402263 64.265625 28.87109375 C63.53142353 37.51955515 59.93595235 42.77783708 53.51171875 48.40625 C46.23122522 53.02590997 38.40282267 52.23783525 30.0625 52.125 C25.751875 52.08375 21.44125 52.0425 17 52 C17 62.23 17 72.46 17 83 C11.39 83 5.78 83 0 83 C0 55.61 0 28.22 0 0 Z M17 14 C17 21.92 17 29.84 17 38 C20.34125 37.9175 23.6825 37.835 27.125 37.75 C28.16672363 37.73420898 29.20844727 37.71841797 30.28173828 37.70214844 C36.10438967 37.48935679 39.56106046 36.86338822 44 33 C45.91303463 29.9225095 46.00253398 28.14190292 45.9375 24.5 C44.82276962 20.33833993 43.28026327 18.72021832 40 16 C37.59458071 14.79729036 35.89633409 14.79683337 33.2109375 14.68359375 C32.36321777 14.64548584 31.51549805 14.60737793 30.64208984 14.56811523 C29.5639502 14.52501221 28.48581055 14.48190918 27.375 14.4375 C23.95125 14.293125 20.5275 14.14875 17 14 Z " fill="#159647" transform="translate(266,1583)"/>
<path d="M0 0 C21.78 0 43.56 0 66 0 C66 4.62 66 9.24 66 14 C58.08 14 50.16 14 42 14 C42 36.77 42 59.54 42 83 C36.06 83 30.12 83 24 83 C24 60.23 24 37.46 24 14 C16.08 14 8.16 14 0 14 C0 9.38 0 4.76 0 0 Z " fill="#159647" transform="translate(582,1583)"/>
<path d="M0 0 C5.28 0 10.56 0 16 0 C16 23.1 16 46.2 16 70 C6 74 6 74 0 75 C0 50.25 0 25.5 0 0 Z " fill="#1A3F29" transform="translate(295,345)"/>
</svg>
